<?xml version="1.0" encoding="UTF-8"?>
<!DOCTYPE svg PUBLIC "-//W3C//DTD SVG 1.1//EN" "http://www.w3.org/Graphics/SVG/1.1/DTD/svg11.dtd">
<svg xmlns="http://www.w3.org/2000/svg" version="1.1" width="100px" height="100px" style="shape-rendering:geometricPrecision; text-rendering:geometricPrecision; image-rendering:optimizeQuality; fill-rule:evenodd; clip-rule:evenodd" xmlns:xlink="http://www.w3.org/1999/xlink">
<g><path style="opacity:0.702" fill="#000000" d="M 46.5,22.5 C 58.3111,22.6565 66.1444,28.3232 70,39.5C 70.6667,45.5 71.3333,51.5 72,57.5C 73.6118,60.0728 75.1118,62.7395 76.5,65.5C 76.2395,67.1871 75.5728,68.6871 74.5,70C 68.8042,70.1701 63.1376,70.6701 57.5,71.5C 54.6446,77.0636 50.3112,78.5636 44.5,76C 43.1279,74.7581 42.1279,73.2581 41.5,71.5C 35.6134,70.8136 29.7801,70.147 24,69.5C 23.2189,68.2713 22.7189,66.938 22.5,65.5C 23.8882,62.7395 25.3882,60.0728 27,57.5C 27.5638,50.421 28.5638,43.421 30,36.5C 33.5848,29.4032 39.0848,24.7365 46.5,22.5 Z M 47.5,26.5 C 57.334,26.6559 63.834,31.3225 67,40.5C 67.9166,48.1653 68.7499,55.8319 69.5,63.5C 74.2434,64.1409 74.5768,65.6409 70.5,68C 56.5,68.6667 42.5,68.6667 28.5,68C 24.4531,65.7226 24.7865,64.056 29.5,63C 76.1619,62.1669 76.1619,61.6669 29.5,61.5C 30.4141,54.5198 31.2475,47.5198 32,40.5C 34.2648,32.475 39.4315,27.8084 47.5,26.5 Z M 43.5,71.5 C 47.3112,70.3547 51.3112,70.1881 55.5,71C 51.6676,76.7985 47.6676,76.9652 43.5,71.5 Z"/></g>
</svg>
