<svg id="svg" version="1.1" xmlns="http://www.w3.org/2000/svg" xmlns:xlink="http://www.w3.org/1999/xlink" width="400" height="182.47422680412373" viewBox="0, 0, 400,182.47422680412373"><g id="svgg"><path id="path0" d="M0.000 91.241 L 0.000 182.482 200.000 182.482 L 400.000 182.482 400.000 91.241 L 400.000 0.000 200.000 0.000 L 0.000 0.000 0.000 91.241 M147.758 5.478 C 148.138 5.808,148.531 6.209,148.631 6.369 C 148.750 6.558,148.814 12.616,148.814 23.581 L 148.814 40.501 148.403 40.912 L 147.991 41.323 147.328 40.966 C 146.434 40.484,144.697 40.480,143.638 40.956 C 141.888 41.744,141.953 42.455,142.012 23.312 L 142.062 6.839 142.790 5.968 C 143.991 4.532,146.395 4.294,147.758 5.478 M248.020 5.598 C 249.095 6.673,249.102 6.802,249.046 24.591 L 248.996 40.320 248.496 40.821 C 248.003 41.313,247.987 41.316,247.462 41.006 C 246.536 40.459,245.400 40.413,244.056 40.867 C 241.955 41.577,242.153 43.357,242.153 23.816 L 242.153 6.994 242.838 6.115 C 244.134 4.450,246.624 4.202,248.020 5.598 M347.314 4.995 C 349.399 5.883,349.264 3.943,349.267 33.233 L 349.270 58.710 348.892 59.191 C 348.464 59.734,347.746 59.819,347.182 59.392 C 346.717 59.040,344.947 59.043,344.097 59.398 C 341.981 60.282,342.141 62.511,342.196 32.938 L 342.245 7.208 342.922 6.166 C 343.810 4.799,345.684 4.300,347.314 4.995 M80.531 14.217 C 81.197 14.539,81.449 14.810,81.871 15.656 L 82.391 16.697 82.439 40.465 C 82.492 66.418,82.532 65.354,81.477 65.619 C 81.212 65.685,80.806 65.654,80.576 65.549 C 79.744 65.170,78.568 65.123,77.201 65.414 C 75.049 65.872,75.281 68.745,75.226 40.959 L 75.179 16.786 75.724 15.705 C 76.315 14.535,76.370 14.481,77.461 14.006 C 78.368 13.611,79.431 13.684,80.531 14.217 M180.556 14.163 C 181.062 14.405,181.455 14.806,181.878 15.511 L 182.480 16.515 182.481 54.494 C 182.482 88.209,182.451 92.499,182.205 92.703 C 182.003 92.871,181.596 92.895,180.700 92.791 C 180.024 92.714,179.060 92.670,178.558 92.693 C 175.712 92.827,175.667 92.822,175.420 92.336 C 175.234 91.971,175.187 84.368,175.185 54.466 L 175.182 17.052 175.805 15.753 C 176.733 13.817,178.558 13.206,180.556 14.163 M280.451 14.076 C 281.241 14.404,281.482 14.627,281.981 15.490 L 282.573 16.515 282.621 40.465 C 282.678 68.707,282.924 66.002,280.356 65.407 C 279.128 65.122,278.299 65.158,277.330 65.539 C 277.056 65.647,276.620 65.681,276.360 65.616 C 275.318 65.355,275.357 66.375,275.409 40.558 L 275.456 16.880 275.912 15.785 C 276.677 13.951,278.499 13.265,280.451 14.076 M383.468 14.005 C 384.199 14.266,384.483 14.505,385.019 15.313 L 385.675 16.300 385.722 54.120 C 385.752 78.554,385.706 92.107,385.590 92.412 C 385.383 92.956,384.494 93.045,382.906 92.682 C 382.202 92.520,381.812 92.536,380.956 92.761 C 379.702 93.090,379.097 92.941,378.829 92.236 C 378.496 91.362,378.593 17.315,378.928 16.162 C 379.511 14.157,381.393 13.262,383.468 14.005 M46.898 27.255 C 47.450 27.584,48.086 28.126,48.312 28.461 L 48.723 29.069 48.723 42.990 C 48.723 59.017,48.765 58.658,46.989 57.482 C 46.224 56.975,44.724 56.992,43.668 57.520 C 41.909 58.398,41.955 58.814,42.013 42.739 L 42.062 29.077 42.578 28.400 C 43.883 26.691,45.314 26.311,46.898 27.255 M113.752 27.299 C 114.167 27.533,114.754 28.035,115.055 28.415 L 115.602 29.106 115.652 38.939 C 115.712 50.668,115.764 50.442,113.291 49.163 C 112.568 48.789,111.324 48.840,110.675 49.270 C 109.976 49.733,109.631 49.729,109.198 49.251 C 108.791 48.802,108.559 31.943,108.927 29.579 C 109.301 27.175,111.602 26.087,113.752 27.299 M313.869 27.247 C 314.421 27.579,315.057 28.125,315.283 28.460 L 315.693 29.069 315.693 38.999 C 315.693 50.565,315.753 50.231,313.869 49.270 C 313.475 49.069,312.818 48.905,312.409 48.905 C 311.999 48.905,311.342 49.069,310.949 49.270 C 308.976 50.276,309.041 50.601,308.981 39.476 C 308.925 29.126,308.944 28.884,309.896 27.977 C 311.388 26.556,312.407 26.368,313.869 27.247 M146.357 42.335 C 146.712 42.433,147.327 42.847,147.725 43.255 L 148.449 43.996 148.499 57.790 C 148.557 73.757,148.724 72.394,146.761 71.946 C 145.792 71.725,145.370 71.710,144.658 71.875 C 143.343 72.178,142.744 72.137,142.525 71.727 C 142.258 71.229,142.267 45.602,142.534 44.639 C 142.816 43.624,143.921 42.505,144.811 42.334 C 145.206 42.257,145.570 42.186,145.620 42.175 C 145.671 42.164,146.002 42.236,146.357 42.335 M246.718 42.403 C 246.971 42.458,247.463 42.799,247.813 43.160 L 248.449 43.816 248.499 57.740 C 248.556 73.750,248.741 72.273,246.726 71.912 C 245.809 71.748,245.285 71.741,244.771 71.883 C 243.844 72.141,243.008 72.132,242.737 71.861 C 242.571 71.695,242.519 68.418,242.520 58.221 L 242.522 44.799 243.067 43.848 C 243.649 42.833,244.054 42.525,245.073 42.325 C 245.705 42.201,245.825 42.206,246.718 42.403 M13.991 43.615 C 14.299 43.865,14.787 44.439,15.076 44.890 L 15.602 45.711 15.659 56.934 C 15.726 70.360,15.794 69.862,13.945 69.494 C 13.452 69.396,12.170 69.364,11.098 69.423 C 8.298 69.578,8.574 70.902,8.591 57.396 C 8.607 44.469,8.567 44.848,10.039 43.681 C 11.092 42.846,13.004 42.814,13.991 43.615 M213.738 43.318 C 214.061 43.456,214.612 43.871,214.964 44.240 L 215.602 44.911 215.653 56.918 C 215.711 70.609,215.780 69.952,214.317 69.546 C 213.361 69.280,211.264 69.289,210.353 69.562 C 208.857 70.010,208.927 70.653,208.983 56.918 L 209.033 44.908 209.763 44.152 C 210.843 43.032,212.340 42.718,213.738 43.318 M113.303 50.812 C 114.967 51.672,115.326 52.768,115.327 56.992 C 115.329 61.188,115.463 60.969,112.977 60.827 C 111.778 60.758,110.785 60.788,110.458 60.902 C 109.329 61.295,109.307 61.211,109.307 56.561 L 109.307 52.373 109.985 51.622 C 110.979 50.522,112.177 50.229,113.303 50.812 M314.444 51.600 L 315.328 52.528 315.328 73.441 C 315.328 96.728,315.445 94.831,314.047 94.271 C 313.128 93.904,311.388 93.894,310.700 94.253 C 309.185 95.043,309.281 96.563,309.344 72.810 L 309.398 52.646 309.944 51.932 C 311.292 50.170,312.962 50.047,314.444 51.600 M46.584 59.010 C 46.907 59.149,47.418 59.523,47.719 59.843 L 48.266 60.425 48.316 71.914 C 48.370 84.494,48.383 84.337,47.393 83.821 C 46.652 83.435,44.316 83.388,43.466 83.743 C 42.393 84.190,42.432 84.588,42.377 72.437 C 42.330 61.765,42.342 61.288,42.679 60.630 C 43.512 59.005,45.066 58.361,46.584 59.010 M347.745 61.529 C 348.722 62.505,348.706 62.136,348.715 84.241 C 348.724 107.669,348.866 105.738,347.160 105.308 C 346.572 105.160,345.754 105.126,344.757 105.209 C 343.663 105.301,343.171 105.273,342.974 105.109 C 342.734 104.910,342.701 102.333,342.701 84.198 L 342.701 63.514 343.145 62.510 C 343.994 60.590,346.312 60.096,347.745 61.529 M113.567 63.047 C 113.884 63.198,114.389 63.711,114.690 64.188 L 115.237 65.055 115.282 104.471 L 115.326 143.887 114.778 144.842 C 113.523 147.028,110.747 147.062,109.398 144.908 C 109.192 144.580,109.023 67.985,109.222 65.726 C 109.439 63.276,111.446 62.038,113.567 63.047 M79.628 66.961 C 80.566 67.178,81.308 67.923,81.552 68.894 C 81.984 70.608,81.816 101.761,81.373 102.204 C 81.128 102.448,80.885 102.537,80.688 102.453 C 80.283 102.281,78.794 102.038,78.561 102.106 C 77.557 102.400,76.446 102.358,76.100 102.013 C 75.595 101.508,75.511 70.694,76.010 69.014 C 76.545 67.211,77.753 66.526,79.628 66.961 M280.674 67.253 C 280.962 67.402,281.326 67.885,281.589 68.467 L 282.026 69.434 282.072 85.401 C 282.126 104.271,282.410 102.305,279.647 102.219 C 278.515 102.183,277.430 102.240,277.150 102.349 C 276.055 102.774,276.095 103.401,276.096 85.589 C 276.097 75.512,276.165 69.190,276.277 68.785 C 276.746 67.098,278.913 66.343,280.674 67.253 M13.650 71.354 C 14.033 71.588,14.416 72.071,14.698 72.677 L 15.142 73.631 15.144 82.675 C 15.146 92.811,15.188 92.477,13.945 92.255 C 12.186 91.942,10.993 91.938,10.398 92.246 C 9.195 92.868,9.222 93.070,9.160 82.977 C 9.099 73.054,9.120 72.695,9.805 71.881 C 10.633 70.897,12.484 70.643,13.650 71.354 M213.723 71.222 C 213.994 71.343,214.445 71.770,214.726 72.172 L 215.237 72.901 215.287 82.395 C 215.345 93.245,215.419 92.694,213.959 92.251 C 212.757 91.887,211.605 91.898,210.528 92.283 C 209.260 92.738,209.312 93.162,209.309 82.472 L 209.307 72.882 209.882 72.100 C 210.692 70.999,212.365 70.616,213.723 71.222 M146.369 73.930 C 147.162 74.195,147.968 74.929,148.289 75.678 C 148.596 76.395,148.670 143.435,148.366 144.498 C 147.505 147.500,142.878 146.906,142.428 143.736 C 142.369 143.317,142.344 127.899,142.374 109.473 L 142.427 75.972 142.967 75.194 C 143.539 74.368,144.260 73.976,145.639 73.741 C 145.699 73.731,146.028 73.816,146.369 73.930 M247.078 74.236 C 247.428 74.405,247.901 74.824,248.129 75.167 L 248.544 75.789 248.496 110.331 L 248.449 144.873 247.745 145.594 C 246.120 147.258,243.364 146.501,242.701 144.209 C 242.560 143.722,242.518 133.717,242.556 109.763 L 242.609 76.004 243.157 75.194 C 244.068 73.847,245.535 73.488,247.078 74.236 M47.367 86.229 C 48.554 87.642,48.443 84.860,48.505 114.864 C 48.570 145.752,48.608 144.444,47.595 145.544 C 46.025 147.247,43.161 146.572,42.507 144.343 C 42.381 143.914,42.337 134.483,42.373 115.666 L 42.427 87.627 42.998 86.834 C 44.041 85.384,46.385 85.060,47.367 86.229 M13.448 94.465 C 14.073 94.831,14.386 95.182,14.711 95.879 L 15.142 96.807 15.144 120.308 L 15.146 143.810 14.760 144.578 C 13.681 146.730,11.636 147.174,9.968 145.619 L 9.215 144.917 9.161 120.770 C 9.102 94.544,9.060 95.631,10.167 94.774 C 11.413 93.811,12.204 93.736,13.448 94.465 M180.408 94.571 C 181.945 95.598,181.917 95.368,181.926 107.049 C 181.935 117.763,181.951 117.567,181.082 117.521 C 180.898 117.512,179.763 117.487,178.558 117.465 C 177.354 117.444,176.266 117.361,176.141 117.279 C 175.963 117.164,175.912 114.915,175.912 107.048 C 175.912 95.578,175.926 95.441,177.146 94.683 C 178.608 93.775,179.188 93.756,180.408 94.571 M213.733 94.516 C 215.486 95.628,215.339 93.162,215.285 120.508 L 215.237 144.490 214.667 145.283 C 213.553 146.832,211.496 146.946,210.086 145.536 L 209.307 144.756 209.307 120.377 L 209.307 95.998 209.900 95.323 C 211.189 93.854,212.316 93.617,213.733 94.516 M383.521 94.465 C 384.146 94.831,384.459 95.182,384.784 95.879 L 385.215 96.807 385.217 106.958 C 385.219 118.712,385.432 117.624,383.167 117.437 C 382.242 117.360,381.309 117.391,380.749 117.517 C 379.107 117.887,379.197 118.503,379.198 106.868 C 379.199 96.224,379.228 95.825,380.063 95.029 C 381.266 93.880,382.250 93.720,383.521 94.465 M313.481 96.247 C 315.664 97.376,315.544 95.804,315.476 122.461 L 315.420 144.283 314.878 145.065 C 313.611 146.892,311.690 147.038,310.116 145.426 L 309.398 144.691 309.349 121.548 L 309.301 98.405 309.902 97.534 C 310.870 96.129,312.275 95.624,313.481 96.247 M80.532 104.838 C 81.118 105.286,81.428 105.684,81.560 106.161 C 81.819 107.093,81.822 143.625,81.564 144.556 C 80.780 147.379,76.661 147.064,75.940 144.125 C 75.579 142.654,75.648 107.547,76.014 106.286 C 76.614 104.225,78.807 103.521,80.532 104.838 M280.775 104.823 C 282.183 106.028,282.117 105.016,282.117 125.462 C 282.117 143.374,282.112 143.593,281.740 144.465 C 280.783 146.701,278.649 147.214,276.939 145.619 L 276.186 144.917 276.186 125.366 L 276.186 105.815 277.042 105.006 C 278.218 103.895,279.611 103.827,280.775 104.823 M346.547 107.299 C 347.093 107.299,348.327 108.528,348.536 109.279 C 348.774 110.137,348.783 143.404,348.545 144.434 C 347.968 146.938,344.392 147.251,343.203 144.903 L 342.701 143.913 342.701 126.907 C 342.701 110.195,342.707 109.886,343.072 109.060 C 343.623 107.815,344.949 106.976,345.955 107.236 C 346.088 107.271,346.355 107.299,346.547 107.299 M180.565 119.859 C 181.862 120.605,181.837 120.363,181.893 132.650 C 181.949 145.057,181.955 144.986,180.701 145.942 C 179.242 147.055,176.738 146.366,176.151 144.691 C 175.861 143.865,175.821 122.507,176.107 121.477 C 176.627 119.607,178.771 118.829,180.565 119.859 M383.748 119.793 C 384.087 119.969,384.447 120.426,384.748 121.062 L 385.219 122.058 385.216 132.972 L 385.213 143.887 384.710 144.886 C 383.552 147.185,380.055 146.968,379.385 144.556 C 379.137 143.664,379.132 122.230,379.379 121.340 C 379.849 119.649,381.997 118.888,383.748 119.793 M47.256 163.674 C 47.360 163.868,47.446 164.258,47.448 164.541 C 47.454 165.692,47.762 165.928,49.288 165.948 C 50.826 165.969,51.181 166.148,51.579 167.102 C 52.675 169.722,50.725 172.788,48.603 171.781 C 48.087 171.536,47.880 171.516,47.609 171.685 C 46.516 172.368,46.350 171.833,46.350 167.609 C 46.350 164.217,46.465 163.321,46.898 163.321 C 46.991 163.321,47.152 163.480,47.256 163.674 M217.447 163.823 C 217.832 164.331,217.801 170.761,217.411 171.318 C 216.756 172.253,216.606 171.577,216.606 167.693 C 216.606 163.458,216.731 162.881,217.447 163.823 M311.591 164.624 C 314.128 167.310,312.169 172.427,308.757 172.023 C 305.645 171.654,304.101 167.720,306.038 165.095 C 307.317 163.361,310.169 163.119,311.591 164.624 M38.058 164.130 C 38.609 164.537,38.144 164.836,36.818 164.928 C 34.539 165.085,34.466 167.019,36.724 167.415 C 37.612 167.570,37.589 167.785,36.633 168.266 C 35.515 168.828,35.219 169.145,35.218 169.782 C 35.215 171.332,34.510 172.273,34.120 171.247 C 33.853 170.546,33.888 164.360,34.161 164.088 C 34.487 163.761,37.605 163.795,38.058 164.130 M70.506 164.421 C 70.762 164.725,71.020 165.280,71.081 165.653 C 71.233 166.590,72.417 168.978,72.730 168.978 C 72.871 168.978,73.036 168.752,73.097 168.476 C 73.319 167.481,73.413 167.238,73.738 166.821 C 73.920 166.588,74.126 166.019,74.195 165.555 C 74.508 163.470,76.456 163.189,76.463 165.228 C 76.465 165.735,76.588 166.723,76.736 167.423 C 77.308 170.123,77.267 171.715,76.626 171.715 C 76.369 171.715,75.794 170.338,75.635 169.343 C 75.334 167.454,74.604 166.953,74.289 168.420 C 74.048 169.547,73.023 171.533,72.682 171.533 C 72.077 171.533,71.306 170.286,71.086 168.951 C 70.832 167.411,70.030 167.817,69.650 169.678 C 69.206 171.857,68.262 172.307,68.247 170.347 C 68.238 169.212,68.776 164.835,68.993 164.279 C 69.226 163.680,69.938 163.746,70.506 164.421 M108.033 164.234 C 108.451 165.095,109.030 166.667,109.310 167.701 C 109.487 168.353,109.769 169.151,109.936 169.475 C 110.323 170.221,110.259 171.596,109.834 171.677 C 109.649 171.712,109.453 171.521,109.304 171.162 C 108.933 170.265,108.441 170.049,106.913 170.110 L 105.576 170.164 105.167 170.894 C 104.928 171.321,104.623 171.624,104.432 171.624 C 103.885 171.624,103.996 169.446,104.597 168.411 C 104.853 167.970,105.116 167.239,105.182 166.786 C 105.248 166.332,105.463 165.716,105.660 165.417 C 105.858 165.117,106.020 164.745,106.021 164.589 C 106.024 163.879,107.717 163.580,108.033 164.234 M140.514 164.970 C 140.820 165.576,141.151 166.500,141.249 167.023 C 141.516 168.445,142.909 169.101,143.171 167.929 C 143.452 166.677,144.153 164.775,144.585 164.097 C 144.754 163.831,145.592 163.798,145.978 164.043 C 146.304 164.249,146.776 170.437,146.518 171.115 C 146.074 172.285,145.527 171.425,145.372 169.313 C 145.197 166.936,144.889 166.545,144.343 168.009 C 144.193 168.413,143.972 168.859,143.853 169.002 C 143.734 169.144,143.488 169.710,143.306 170.260 C 142.744 171.955,141.491 171.723,141.165 169.863 C 141.101 169.497,140.922 169.092,140.767 168.963 C 140.611 168.834,140.319 168.406,140.118 168.011 C 139.599 166.993,139.394 167.336,139.246 169.473 C 139.116 171.346,139.010 171.715,138.605 171.715 C 137.862 171.715,138.020 164.674,138.776 164.121 C 139.502 163.590,139.921 163.795,140.514 164.970 M178.278 164.222 C 178.483 164.605,178.536 169.179,178.348 170.315 C 178.205 171.176,177.144 171.953,176.233 171.863 C 175.391 171.779,175.422 171.440,176.353 170.535 L 177.190 169.722 177.190 167.014 C 177.190 164.313,177.284 163.869,177.859 163.869 C 177.985 163.869,178.174 164.027,178.278 164.222 M207.993 164.088 C 208.244 164.339,208.306 170.372,208.061 170.758 C 207.730 171.279,206.653 171.898,206.078 171.898 C 205.229 171.898,205.276 171.342,206.204 170.395 L 206.934 169.650 206.934 167.046 C 206.934 164.139,207.227 163.322,207.993 164.088 M238.572 164.285 C 238.834 164.547,239.070 165.119,239.210 165.830 C 239.332 166.451,239.510 167.007,239.604 167.066 C 239.699 167.124,239.906 167.640,240.065 168.212 C 240.223 168.784,240.508 169.627,240.697 170.087 C 241.381 171.746,240.806 172.161,239.579 170.894 C 238.384 169.662,236.807 169.663,235.615 170.897 C 234.534 172.017,233.951 171.838,234.478 170.548 C 234.605 170.237,234.828 169.498,234.974 168.906 C 235.119 168.315,235.387 167.534,235.569 167.173 C 235.751 166.811,236.001 166.083,236.125 165.555 C 236.490 164.004,237.675 163.388,238.572 164.285 M275.000 164.142 C 275.396 164.619,274.904 164.964,273.826 164.964 C 272.085 164.964,271.642 166.260,273.149 166.942 C 275.741 168.116,276.443 170.267,274.626 171.470 C 273.363 172.305,271.442 172.226,271.442 171.339 C 271.442 170.923,271.496 170.898,272.295 170.953 C 274.742 171.124,274.834 169.111,272.426 168.075 C 270.809 167.379,270.351 164.623,271.758 164.058 C 272.471 163.772,274.742 163.831,275.000 164.142 M338.585 164.846 C 338.942 165.383,339.234 165.905,339.234 166.007 C 339.234 166.108,339.480 166.501,339.781 166.880 C 340.082 167.258,340.328 167.670,340.328 167.795 C 340.328 168.250,340.815 168.466,341.130 168.150 C 341.355 167.925,341.423 167.482,341.423 166.241 C 341.423 164.283,342.026 163.449,342.847 164.270 C 343.332 164.756,343.135 170.932,342.618 171.450 C 341.897 172.170,340.674 171.369,340.239 169.891 C 340.165 169.640,339.943 169.258,339.747 169.043 C 339.550 168.828,339.251 168.376,339.083 168.040 C 338.347 166.565,337.656 167.342,337.613 169.694 C 337.586 171.158,336.790 172.197,336.425 171.244 C 336.128 170.471,336.308 164.255,336.633 164.066 C 337.396 163.622,337.909 163.826,338.585 164.846 M377.065 164.073 C 379.162 165.146,380.266 168.752,378.846 169.891 C 378.784 169.941,378.594 170.200,378.424 170.467 C 377.579 171.796,373.822 172.454,373.006 171.417 C 372.485 170.755,372.422 164.763,372.930 164.202 C 373.285 163.810,376.363 163.713,377.065 164.073 M4.161 164.270 C 4.314 164.423,4.380 165.418,4.380 167.573 L 4.380 170.657 3.759 171.277 C 3.326 171.711,2.972 171.898,2.584 171.898 C 1.765 171.898,1.708 171.580,2.397 170.869 L 3.011 170.236 3.060 167.554 C 3.124 164.024,3.323 163.432,4.161 164.270 M322.007 165.763 L 322.467 166.472 322.000 166.959 C 321.208 167.786,321.407 170.522,322.309 171.203 C 322.846 171.609,322.537 171.946,321.702 171.865 C 320.814 171.779,320.450 171.039,320.309 169.039 C 320.227 167.862,320.101 167.297,319.842 166.946 C 319.418 166.371,319.742 165.433,320.597 164.761 C 321.135 164.337,321.034 164.265,322.007 165.763 M307.781 165.123 C 306.807 165.506,306.375 167.763,307.003 169.183 C 308.403 172.346,311.544 170.828,311.276 167.120 C 311.146 165.319,309.570 164.419,307.781 165.123 M374.307 165.182 C 373.964 165.525,374.012 169.762,374.366 170.447 C 375.208 172.076,378.385 169.516,378.054 167.475 C 377.919 166.642,377.018 165.192,376.559 165.069 C 375.892 164.889,374.531 164.958,374.307 165.182 M318.339 166.429 C 318.339 166.606,318.041 166.735,317.430 166.823 C 315.909 167.040,315.741 167.120,315.529 167.727 C 314.912 169.497,315.637 170.877,317.334 171.159 C 318.235 171.309,318.302 171.837,317.440 171.999 C 316.284 172.215,314.515 171.351,314.291 170.460 C 314.228 170.210,314.067 169.795,313.933 169.538 C 313.439 168.592,314.347 166.406,315.366 166.085 C 316.671 165.675,318.339 165.868,318.339 166.429 M9.726 166.044 C 10.655 166.398,10.968 171.598,10.068 171.734 C 7.260 172.159,5.794 171.434,6.106 169.774 C 6.242 169.046,7.330 168.248,8.186 168.248 C 9.226 168.248,9.475 167.160,8.483 166.948 C 8.183 166.884,7.630 166.822,7.254 166.810 C 6.467 166.785,6.302 166.337,6.980 166.064 C 7.525 165.845,9.170 165.833,9.726 166.044 M16.677 166.258 C 17.463 166.876,17.797 169.335,17.326 171.031 C 16.929 172.459,16.241 171.331,16.241 169.253 C 16.241 167.594,15.822 166.971,14.708 166.971 C 13.787 166.971,13.509 167.466,13.482 169.156 C 13.454 170.922,13.302 171.605,12.921 171.679 C 12.266 171.805,11.884 167.176,12.479 166.327 C 12.863 165.779,16.003 165.727,16.677 166.258 M43.608 166.038 C 43.952 166.134,44.168 166.440,44.513 167.320 L 44.966 168.476 44.526 168.832 C 44.155 169.133,43.922 169.169,43.024 169.065 C 40.816 168.808,40.768 170.818,42.974 171.133 C 44.004 171.280,44.214 171.693,43.375 171.917 C 41.679 172.371,39.414 170.534,39.417 168.707 C 39.418 167.947,40.500 166.195,41.066 166.037 C 41.644 165.876,43.029 165.877,43.608 166.038 M82.311 166.064 C 83.090 166.482,83.432 167.608,83.365 169.542 C 83.290 171.695,83.327 171.653,81.387 171.801 L 79.836 171.919 79.151 171.279 C 77.970 170.174,78.899 168.248,80.614 168.248 C 82.033 168.248,81.955 166.958,80.530 166.870 C 80.148 166.846,79.733 166.818,79.608 166.807 C 79.318 166.783,79.313 166.381,79.599 166.095 C 79.867 165.827,81.825 165.805,82.311 166.064 M87.372 166.095 C 87.711 166.433,87.634 166.710,87.140 166.935 C 86.533 167.212,86.131 168.248,86.131 169.538 C 86.131 170.776,85.476 171.851,85.004 171.387 C 84.679 171.068,84.548 166.700,84.852 166.334 C 85.202 165.913,87.018 165.741,87.372 166.095 M116.878 166.628 L 117.554 167.376 117.491 168.898 C 117.403 170.990,116.011 172.355,114.429 171.902 C 113.762 171.710,113.354 172.099,113.196 173.077 C 113.069 173.859,112.695 174.088,112.259 173.651 C 112.000 173.392,111.948 172.840,111.910 169.974 C 111.855 165.760,111.754 165.927,114.375 165.900 L 116.203 165.881 116.878 166.628 M121.538 166.208 L 121.948 166.540 121.295 166.925 C 120.549 167.365,120.073 168.591,120.073 170.070 C 120.073 170.958,119.842 171.350,119.319 171.350 C 118.851 171.350,118.727 170.749,118.744 168.563 C 118.761 166.395,118.871 166.119,119.767 166.007 C 120.939 165.860,121.136 165.883,121.538 166.208 M152.153 166.032 C 152.920 166.518,153.222 170.552,152.555 171.400 C 151.965 172.150,149.645 172.119,148.878 171.351 C 147.745 170.218,148.742 168.273,150.465 168.254 C 151.098 168.247,151.460 167.964,151.460 167.476 C 151.460 167.070,151.306 167.006,149.909 166.832 C 148.752 166.688,148.573 166.478,149.291 166.107 C 149.780 165.853,151.789 165.801,152.153 166.032 M191.340 166.324 C 191.899 166.882,192.031 170.784,191.515 171.452 C 190.998 172.121,190.693 171.360,190.693 169.399 C 190.693 167.944,190.641 167.648,190.328 167.336 C 189.206 166.213,187.787 167.615,187.778 169.857 C 187.772 171.303,187.081 172.192,186.794 171.122 C 186.635 170.530,186.659 166.555,186.822 166.297 C 186.954 166.090,187.806 165.984,189.926 165.910 C 190.735 165.881,190.966 165.949,191.340 166.324 M237.358 166.003 C 237.133 166.396,236.844 168.088,236.946 168.411 C 237.251 169.369,238.327 168.972,238.311 167.906 C 238.293 166.726,237.664 165.470,237.358 166.003 M254.330 166.351 C 254.889 167.102,254.574 171.900,253.904 172.838 C 253.119 173.938,252.350 174.316,251.128 174.202 C 249.366 174.038,249.112 173.175,250.826 173.175 C 252.216 173.175,252.372 173.078,252.372 172.219 L 252.372 171.485 251.642 171.583 C 251.241 171.637,250.873 171.617,250.825 171.539 C 250.777 171.461,250.499 171.350,250.207 171.291 C 248.465 170.943,248.361 166.788,250.076 166.041 C 250.803 165.724,254.038 165.960,254.330 166.351 M280.924 165.990 C 281.087 166.052,281.400 166.442,281.620 166.856 C 282.602 168.703,282.404 169.035,280.307 169.060 C 278.739 169.079,278.425 169.235,278.603 169.913 C 278.755 170.495,279.711 171.168,280.386 171.168 C 281.056 171.168,281.363 171.447,281.044 171.766 C 280.617 172.193,279.154 171.992,278.264 171.385 C 275.315 169.373,277.609 164.718,280.924 165.990 M288.017 166.047 C 288.304 166.156,288.568 166.541,288.837 167.244 C 289.869 169.940,288.390 172.363,285.994 171.902 C 284.986 171.708,284.672 171.946,284.672 172.901 C 284.672 173.624,284.277 174.185,283.877 174.032 C 283.580 173.918,283.397 166.922,283.672 166.204 C 283.785 165.910,287.320 165.782,288.017 166.047 M348.650 166.063 C 349.901 166.505,350.516 168.721,349.799 170.203 C 348.304 173.292,344.393 172.269,344.356 168.779 C 344.331 166.448,346.269 165.222,348.650 166.063 M384.630 166.242 C 385.291 166.644,385.584 167.230,385.584 168.146 C 385.584 168.994,385.298 169.148,383.807 169.106 C 382.139 169.059,381.893 169.257,382.433 170.209 C 382.748 170.765,382.983 170.936,383.677 171.113 C 385.090 171.476,385.004 171.898,383.518 171.898 C 381.555 171.898,380.292 170.517,380.292 168.370 C 380.292 166.395,382.835 165.147,384.630 166.242 M390.788 166.060 C 391.473 166.320,391.258 166.669,390.314 166.826 C 388.827 167.074,388.699 167.143,388.309 167.907 C 387.713 169.076,388.552 170.811,389.850 171.089 C 390.945 171.324,391.189 171.540,390.678 171.823 C 388.580 172.985,385.309 168.991,387.065 167.410 C 387.277 167.218,387.522 166.875,387.610 166.647 C 387.880 165.940,389.626 165.618,390.788 166.060 M155.452 166.381 C 155.547 166.559,155.682 167.011,155.752 167.386 C 155.881 168.073,156.709 168.978,157.209 168.978 C 157.363 168.978,157.537 168.583,157.672 167.929 C 157.965 166.504,158.130 166.241,158.735 166.241 C 159.458 166.241,159.502 166.355,159.113 167.214 C 158.923 167.632,158.765 168.168,158.763 168.404 C 158.761 168.640,158.560 169.215,158.317 169.681 C 158.074 170.148,157.781 170.886,157.666 171.321 C 157.444 172.164,155.782 174.090,155.282 174.085 C 154.586 174.077,154.463 173.755,154.954 173.229 C 156.037 172.071,156.110 170.477,155.147 169.016 C 154.675 168.300,154.213 166.481,154.444 166.249 C 154.739 165.955,155.260 166.023,155.452 166.381 M181.276 166.347 C 181.337 166.506,181.387 167.315,181.387 168.145 C 181.387 170.295,181.802 171.168,182.825 171.168 C 183.213 171.168,183.651 169.693,183.748 168.066 L 183.850 166.332 184.489 166.332 L 185.128 166.332 185.179 168.570 C 185.245 171.433,185.123 171.605,182.897 171.802 C 181.235 171.949,180.811 171.812,180.385 170.989 C 180.036 170.314,179.992 166.614,180.328 166.277 C 180.638 165.968,181.145 166.006,181.276 166.347 M211.135 168.068 C 211.344 172.259,213.504 172.367,213.504 168.186 C 213.504 166.468,213.715 165.997,214.370 166.252 C 214.762 166.404,214.981 168.639,214.808 170.712 C 214.743 171.493,212.245 172.218,210.989 171.819 C 209.861 171.461,209.106 167.024,210.059 166.355 C 210.896 165.767,211.032 165.983,211.135 168.068 M243.431 167.912 C 243.646 172.079,246.131 172.056,246.350 167.884 C 246.440 166.180,246.450 166.150,246.898 166.150 L 247.354 166.150 247.354 168.848 C 247.354 171.808,247.281 172.012,246.337 171.683 C 245.995 171.564,245.709 171.570,245.463 171.702 C 244.705 172.108,243.750 171.938,243.020 171.268 L 242.336 170.639 242.336 168.470 C 242.336 166.173,242.379 166.012,242.967 166.096 C 243.305 166.145,243.348 166.312,243.431 167.912 M352.342 166.378 C 352.433 166.553,352.565 167.026,352.636 167.427 C 352.854 168.652,354.197 169.700,354.449 168.841 C 354.500 168.666,354.597 168.193,354.664 167.792 C 354.846 166.699,355.201 166.241,355.865 166.241 C 356.321 166.241,356.409 166.302,356.325 166.560 C 355.061 170.441,354.415 171.715,353.713 171.715 C 353.092 171.715,352.555 171.071,352.555 170.326 C 352.555 170.154,352.360 169.678,352.121 169.268 C 351.549 168.284,351.195 166.652,351.479 166.309 C 351.765 165.965,352.144 165.995,352.342 166.378 M106.382 166.709 C 105.941 167.869,106.285 168.978,107.087 168.978 C 108.197 168.978,108.441 167.532,107.468 166.713 C 106.766 166.123,106.605 166.122,106.382 166.709 M382.436 167.077 C 381.429 167.620,382.403 168.480,383.628 168.130 C 384.369 167.918,384.545 167.247,383.907 167.063 C 383.034 166.812,382.926 166.813,382.436 167.077 M41.297 167.269 C 41.100 167.783,41.499 168.157,42.245 168.157 C 42.990 168.157,43.389 167.783,43.192 167.269 C 43.109 167.053,42.847 166.971,42.245 166.971 C 41.642 166.971,41.380 167.053,41.297 167.269 M48.107 167.311 C 46.584 168.993,48.423 171.974,49.987 170.360 C 50.711 169.613,50.772 167.720,50.089 167.220 C 49.588 166.854,48.474 166.905,48.107 167.311 M113.673 167.260 C 112.869 168.230,113.524 170.820,114.607 170.948 C 116.017 171.115,116.943 168.377,115.806 167.399 C 115.213 166.889,114.044 166.813,113.673 167.260 M250.649 167.376 C 250.221 167.987,250.270 169.613,250.730 170.073 C 251.884 171.227,253.481 169.567,252.797 167.924 C 252.350 166.851,251.219 166.563,250.649 167.376 M278.677 167.132 C 278.300 167.372,278.506 167.947,279.036 168.134 C 280.002 168.473,280.987 167.862,280.473 167.242 C 280.229 166.949,279.078 166.878,278.677 167.132 M285.362 167.290 C 284.845 167.882,284.634 168.472,284.743 169.019 C 284.838 169.490,285.048 169.823,285.950 170.931 C 286.632 171.768,287.869 170.131,287.739 168.563 C 287.612 167.029,286.234 166.291,285.362 167.290 M346.288 167.177 C 345.395 167.697,345.303 169.168,346.104 170.133 C 346.340 170.416,346.533 170.724,346.533 170.817 C 346.533 171.243,347.790 170.979,348.147 170.477 C 348.848 169.493,348.797 167.361,348.067 167.081 C 347.620 166.909,346.659 166.962,346.288 167.177 M7.801 169.175 C 7.337 169.445,7.361 170.725,7.835 170.979 C 8.597 171.387,8.911 171.223,9.043 170.345 C 9.220 169.160,8.689 168.658,7.801 169.175 M80.379 169.282 C 79.845 169.817,80.420 171.368,81.062 171.121 C 81.587 170.920,81.798 169.654,81.367 169.297 C 80.889 168.902,80.761 168.900,80.379 169.282 M149.854 169.197 C 149.123 169.928,150.202 171.720,151.056 171.192 C 151.381 170.991,151.543 169.572,151.278 169.253 C 151.005 168.924,150.160 168.891,149.854 169.197 " stroke="none" fill="#fbfbfb" fill-rule="evenodd"></path><path id="path1" d="M110.848 62.949 C 109.931 63.320,109.346 64.319,109.222 65.726 C 109.023 67.985,109.192 144.580,109.398 144.908 C 110.747 147.062,113.523 147.028,114.778 144.842 L 115.326 143.887 115.282 104.471 L 115.237 65.055 114.690 64.188 C 113.894 62.927,112.228 62.390,110.848 62.949 M144.982 73.901 C 143.880 74.184,143.495 74.431,142.967 75.194 L 142.427 75.972 142.374 109.473 C 142.344 127.899,142.369 143.317,142.428 143.736 C 142.878 146.906,147.505 147.500,148.366 144.498 C 148.670 143.435,148.596 76.395,148.289 75.678 C 147.887 74.740,146.354 73.619,145.639 73.741 C 145.579 73.752,145.283 73.823,144.982 73.901 M244.617 74.057 C 243.915 74.309,243.578 74.572,243.157 75.194 L 242.609 76.004 242.556 109.763 C 242.518 133.717,242.560 143.722,242.701 144.209 C 243.364 146.501,246.120 147.258,247.745 145.594 L 248.449 144.873 248.496 110.331 L 248.544 75.789 248.129 75.167 C 247.365 74.020,245.959 73.576,244.617 74.057 M44.002 85.805 C 43.764 85.934,43.312 86.397,42.998 86.834 L 42.427 87.627 42.373 115.666 C 42.337 134.483,42.381 143.914,42.507 144.343 C 43.161 146.572,46.025 147.247,47.595 145.544 C 48.608 144.444,48.570 145.752,48.505 114.864 C 48.443 84.860,48.554 87.642,47.367 86.229 C 46.839 85.600,44.841 85.348,44.002 85.805 M11.124 94.128 C 8.959 95.083,9.099 93.177,9.161 120.770 L 9.215 144.917 9.968 145.619 C 11.636 147.174,13.681 146.730,14.760 144.578 L 15.146 143.810 15.144 120.308 L 15.142 96.807 14.711 95.879 C 14.050 94.462,12.302 93.608,11.124 94.128 M211.040 94.313 C 210.739 94.497,210.226 94.951,209.900 95.323 L 209.307 95.998 209.307 120.377 L 209.307 144.756 210.086 145.536 C 211.496 146.946,213.553 146.832,214.667 145.283 L 215.237 144.490 215.285 120.508 C 215.332 96.616,215.331 96.523,214.957 95.790 C 214.198 94.303,212.257 93.571,211.040 94.313 M311.133 96.324 C 310.786 96.510,310.232 97.054,309.902 97.534 L 309.301 98.405 309.349 121.548 L 309.398 144.691 310.116 145.426 C 311.690 147.038,313.611 146.892,314.878 145.065 L 315.420 144.283 315.476 122.461 C 315.539 97.645,315.559 98.249,314.641 97.232 C 313.486 95.955,312.364 95.664,311.133 96.324 M77.054 104.752 C 75.673 105.768,75.730 104.881,75.730 125.267 C 75.730 143.950,75.747 144.402,76.490 145.469 C 77.683 147.183,81.000 146.586,81.564 144.556 C 81.822 143.625,81.819 107.093,81.560 106.161 C 81.066 104.382,78.604 103.612,77.054 104.752 M277.042 105.006 L 276.186 105.815 276.186 125.366 L 276.186 144.917 276.939 145.619 C 278.649 147.214,280.783 146.701,281.740 144.465 C 282.272 143.219,282.338 108.027,281.811 106.395 C 281.070 104.101,278.724 103.418,277.042 105.006 M345.164 107.252 C 344.352 107.367,343.492 108.111,343.072 109.060 C 342.707 109.886,342.701 110.195,342.701 126.907 L 342.701 143.913 343.203 144.903 C 344.392 147.251,347.968 146.938,348.545 144.434 C 348.783 143.404,348.774 110.137,348.536 109.279 C 348.327 108.528,347.093 107.299,346.547 107.299 C 346.355 107.299,346.088 107.271,345.955 107.236 C 345.821 107.202,345.465 107.209,345.164 107.252 M177.922 119.522 C 177.141 119.715,176.364 120.552,176.107 121.477 C 175.821 122.507,175.861 143.865,176.151 144.691 C 177.013 147.151,180.819 147.060,181.649 144.560 C 182.145 143.066,181.992 121.920,181.478 120.899 C 180.887 119.726,179.410 119.154,177.922 119.522 M381.132 119.523 C 380.381 119.761,379.590 120.581,379.379 121.340 C 379.132 122.230,379.137 143.664,379.385 144.556 C 380.055 146.968,383.552 147.185,384.710 144.886 L 385.213 143.887 385.216 132.972 L 385.219 122.058 384.748 121.062 C 384.095 119.681,382.617 119.052,381.132 119.523 " stroke="none" fill="#fc5757" fill-rule="evenodd"></path><path id="path2" d="M144.285 5.844 C 144.003 6.067,143.551 6.589,143.282 7.003 L 142.792 7.755 142.739 22.931 C 142.711 31.278,142.753 38.501,142.834 38.984 L 142.981 39.861 145.532 39.861 L 148.084 39.861 148.084 23.491 L 148.084 7.122 147.326 6.364 C 146.356 5.394,145.123 5.183,144.285 5.844 M244.305 5.953 C 243.021 6.867,243.066 6.218,243.066 23.824 C 243.066 36.200,243.114 39.588,243.294 39.716 C 243.419 39.805,244.548 39.877,245.803 39.875 L 248.084 39.872 248.136 23.905 C 248.195 5.737,248.267 7.014,247.137 6.134 C 246.082 5.312,245.278 5.260,244.305 5.953 M344.263 6.037 C 343.903 6.352,343.540 6.893,343.436 7.269 C 343.208 8.090,343.179 57.819,343.406 58.178 C 343.517 58.353,344.171 58.425,345.811 58.445 L 348.064 58.471 348.216 57.886 C 348.439 57.026,348.310 7.281,348.084 6.904 C 347.228 5.478,345.377 5.058,344.263 6.037 M77.828 14.761 C 76.952 15.142,76.490 15.861,76.372 17.028 C 76.163 19.097,76.349 64.196,76.567 64.414 C 76.703 64.549,77.092 64.562,77.787 64.453 C 78.408 64.355,79.245 64.363,79.920 64.471 C 80.531 64.570,81.090 64.591,81.163 64.518 C 81.336 64.346,81.337 16.840,81.164 16.241 C 80.858 15.176,78.886 14.301,77.828 14.761 M177.963 14.778 C 177.735 14.875,177.325 15.162,177.050 15.417 L 176.551 15.879 176.551 53.776 L 176.551 91.673 178.766 91.663 C 179.985 91.657,181.073 91.596,181.184 91.527 C 181.453 91.361,181.473 17.196,181.204 16.230 C 180.885 15.080,179.116 14.288,177.963 14.778 M278.193 14.722 C 277.993 14.776,277.541 15.106,277.190 15.455 L 276.551 16.089 276.551 40.298 L 276.551 64.507 277.190 64.476 C 277.541 64.460,278.321 64.446,278.923 64.446 C 279.526 64.446,280.306 64.460,280.657 64.476 L 281.296 64.507 281.296 40.195 L 281.296 15.883 280.747 15.335 C 280.189 14.776,279.024 14.496,278.193 14.722 M381.281 14.745 C 381.072 14.815,380.620 15.194,380.277 15.587 L 379.653 16.302 379.603 53.634 C 379.575 74.167,379.592 91.133,379.641 91.335 C 379.752 91.796,384.221 91.849,384.513 91.393 C 384.862 90.846,384.612 16.364,384.258 15.825 C 383.647 14.892,382.298 14.403,381.281 14.745 M44.189 28.067 C 43.920 28.148,43.563 28.570,43.231 29.199 L 42.701 30.201 42.701 43.294 L 42.701 56.387 44.845 56.400 C 46.024 56.407,47.153 56.479,47.354 56.560 C 48.187 56.896,48.175 57.095,48.175 43.238 C 48.175 35.734,48.104 29.953,48.008 29.711 C 47.436 28.265,45.824 27.571,44.189 28.067 M110.927 28.069 C 110.764 28.138,110.395 28.476,110.106 28.821 L 109.580 29.449 109.526 38.493 C 109.497 43.467,109.515 47.704,109.566 47.909 C 109.661 48.287,114.009 48.448,114.581 48.095 C 115.015 47.827,114.843 30.486,114.395 29.315 C 113.911 28.052,112.326 27.483,110.927 28.069 M311.188 28.065 C 310.968 28.136,310.538 28.563,310.233 29.015 L 309.678 29.836 309.675 39.055 L 309.672 48.274 312.363 48.258 L 315.055 48.243 315.109 39.404 C 315.166 29.959,315.148 29.731,314.256 28.663 C 313.711 28.009,312.250 27.725,311.188 28.065 M10.736 44.397 C 9.427 45.395,9.495 44.706,9.492 57.126 C 9.489 69.672,9.389 68.856,10.881 68.509 C 11.654 68.329,12.139 68.322,12.973 68.477 C 14.633 68.786,14.507 69.710,14.507 57.153 C 14.507 45.332,14.477 44.896,13.623 44.506 C 13.407 44.408,13.025 44.209,12.774 44.064 C 12.076 43.662,11.598 43.740,10.736 44.397 M211.131 44.240 C 210.780 44.473,210.287 44.940,210.036 45.278 L 209.580 45.894 209.534 57.117 C 209.481 69.717,209.395 68.977,210.870 68.557 C 211.752 68.307,212.112 68.292,213.136 68.468 C 215.177 68.818,214.982 70.042,214.923 57.257 C 214.865 44.582,214.933 45.152,213.390 44.248 C 212.444 43.694,211.959 43.692,211.131 44.240 " stroke="none" fill="#0828f4" fill-rule="evenodd"></path><path id="path3" d="M144.067 4.926 C 143.765 5.020,143.191 5.489,142.790 5.968 L 142.062 6.839 142.012 23.312 C 141.953 42.455,141.888 41.744,143.638 40.956 C 144.697 40.480,146.434 40.484,147.328 40.966 L 147.991 41.323 148.403 40.912 L 148.814 40.501 148.814 23.581 C 148.814 12.616,148.750 6.558,148.631 6.369 C 147.813 5.063,145.738 4.407,144.067 4.926 M244.069 4.986 C 243.768 5.124,243.214 5.632,242.838 6.115 L 242.153 6.994 242.153 23.816 C 242.153 43.357,241.955 41.577,244.056 40.867 C 245.400 40.413,246.536 40.459,247.462 41.006 C 247.987 41.316,248.003 41.313,248.496 40.821 L 248.996 40.320 249.046 24.591 C 249.102 6.802,249.095 6.673,248.020 5.598 C 247.187 4.765,245.220 4.460,244.069 4.986 M344.199 4.950 C 343.758 5.078,343.421 5.398,342.922 6.166 L 342.245 7.208 342.196 32.938 C 342.141 62.511,341.981 60.282,344.097 59.398 C 344.947 59.043,346.717 59.040,347.182 59.392 C 347.746 59.819,348.464 59.734,348.892 59.191 L 349.270 58.710 349.267 33.233 C 349.265 5.592,349.306 6.780,348.299 5.679 C 347.503 4.809,345.762 4.500,344.199 4.950 M147.474 5.769 C 148.587 6.696,148.513 5.448,148.527 23.551 C 148.542 41.954,148.613 40.926,147.351 40.510 C 146.468 40.218,144.396 40.223,143.502 40.518 C 142.268 40.925,142.336 41.896,142.336 23.708 L 142.336 7.339 142.945 6.452 C 144.046 4.851,146.013 4.554,147.474 5.769 M247.652 5.800 C 248.202 6.312,248.433 6.700,248.549 7.305 C 248.801 8.608,248.766 39.540,248.513 40.021 C 248.219 40.579,247.996 40.686,247.510 40.501 C 246.907 40.272,245.554 40.236,244.028 40.408 L 242.709 40.557 242.523 40.066 C 242.216 39.260,242.286 8.305,242.596 7.436 C 243.441 5.068,245.985 4.245,247.652 5.800 M347.575 5.661 C 348.788 6.553,348.723 4.996,348.723 32.930 C 348.723 61.886,348.872 59.338,347.193 58.962 C 346.505 58.808,345.626 58.774,344.542 58.859 C 343.024 58.978,342.907 58.962,342.719 58.611 C 342.576 58.343,342.519 51.031,342.520 33.087 L 342.522 7.938 342.950 7.018 C 343.876 5.030,345.907 4.434,347.575 5.661 M77.461 14.006 C 76.370 14.481,76.315 14.535,75.724 15.705 L 75.179 16.786 75.226 40.959 C 75.281 68.745,75.049 65.872,77.201 65.414 C 78.568 65.123,79.744 65.170,80.576 65.549 C 80.806 65.654,81.212 65.685,81.477 65.619 C 82.532 65.354,82.492 66.418,82.439 40.465 L 82.391 16.697 81.871 15.656 C 81.057 14.024,79.100 13.292,77.461 14.006 M177.402 14.070 C 176.482 14.432,176.393 14.526,175.805 15.753 L 175.182 17.052 175.185 54.466 C 175.187 84.368,175.234 91.971,175.420 92.336 C 175.667 92.822,175.712 92.827,178.558 92.693 C 179.060 92.670,180.024 92.714,180.700 92.791 C 181.596 92.895,182.003 92.871,182.205 92.703 C 182.451 92.499,182.482 88.209,182.481 54.494 L 182.480 16.515 181.878 15.511 C 180.895 13.871,179.249 13.342,177.402 14.070 M277.359 14.188 C 276.467 14.640,276.323 14.799,275.912 15.785 L 275.456 16.880 275.409 40.558 C 275.357 66.375,275.318 65.355,276.360 65.616 C 276.620 65.681,277.056 65.647,277.330 65.539 C 278.299 65.158,279.128 65.122,280.356 65.407 C 282.924 66.002,282.678 68.707,282.621 40.465 L 282.573 16.515 281.981 15.490 C 280.981 13.761,279.196 13.258,277.359 14.188 M380.956 13.953 C 379.931 14.319,379.247 15.064,378.928 16.162 C 378.593 17.315,378.496 91.362,378.829 92.236 C 379.097 92.941,379.702 93.090,380.956 92.761 C 381.812 92.536,382.202 92.520,382.906 92.682 C 384.494 93.045,385.383 92.956,385.590 92.412 C 385.706 92.107,385.752 78.554,385.722 54.120 L 385.675 16.300 385.019 15.313 C 384.063 13.873,382.577 13.376,380.956 13.953 M80.201 14.463 C 80.930 14.825,81.399 15.417,81.664 16.309 C 82.057 17.632,82.074 64.136,81.681 64.696 C 81.378 65.129,76.277 65.219,75.856 64.798 C 75.414 64.356,75.557 17.079,76.004 15.986 C 76.681 14.328,78.558 13.647,80.201 14.463 M180.566 14.577 C 180.886 14.753,181.302 15.256,181.569 15.788 L 182.026 16.697 182.026 54.432 C 182.026 87.772,181.994 92.188,181.752 92.348 C 181.460 92.542,180.855 92.491,179.608 92.169 C 179.048 92.025,178.617 92.024,178.057 92.167 C 176.445 92.579,176.340 92.577,176.026 92.130 C 175.587 91.504,175.569 17.853,176.008 16.345 C 176.588 14.348,178.680 13.537,180.566 14.577 M280.619 14.524 C 281.082 14.713,281.322 15.001,281.668 15.784 L 282.117 16.799 282.117 40.779 C 282.117 59.167,282.066 64.791,281.899 64.894 C 281.339 65.240,276.427 65.069,276.165 64.695 C 275.835 64.225,275.784 17.641,276.112 16.341 C 276.591 14.438,278.508 13.665,280.619 14.524 M383.718 14.524 C 384.183 14.712,384.435 15.020,384.858 15.914 L 385.401 17.062 385.401 54.322 C 385.401 79.079,385.339 91.745,385.216 92.069 C 385.015 92.600,384.764 92.611,382.834 92.180 C 382.273 92.055,381.767 92.054,381.283 92.178 C 380.889 92.279,380.380 92.406,380.154 92.461 C 379.130 92.710,379.197 95.403,379.197 54.166 C 379.197 21.935,379.236 16.149,379.453 15.730 C 380.238 14.223,381.846 13.768,383.718 14.524 M44.809 26.775 C 44.165 26.939,43.103 27.713,42.578 28.400 L 42.062 29.077 42.013 42.739 C 41.955 58.814,41.909 58.398,43.668 57.520 C 44.724 56.992,46.224 56.975,46.989 57.482 C 48.765 58.658,48.723 59.017,48.723 42.990 L 48.723 29.069 48.312 28.461 C 47.853 27.782,46.092 26.649,45.529 26.671 C 45.328 26.678,45.004 26.725,44.809 26.775 M110.844 27.109 C 108.704 28.233,108.727 28.093,108.797 39.814 C 108.859 50.333,108.884 50.457,110.675 49.270 C 111.324 48.840,112.568 48.789,113.291 49.163 C 115.764 50.442,115.712 50.668,115.652 38.939 L 115.602 29.106 115.055 28.415 C 113.858 26.904,112.208 26.393,110.844 27.109 M311.220 27.026 C 308.876 28.261,308.919 28.021,308.981 39.476 C 309.041 50.601,308.976 50.276,310.949 49.270 C 311.342 49.069,311.999 48.905,312.409 48.905 C 312.818 48.905,313.475 49.069,313.869 49.270 C 315.753 50.231,315.693 50.565,315.693 38.999 L 315.693 29.069 315.283 28.460 C 314.307 27.013,312.473 26.365,311.220 27.026 M46.563 27.533 C 47.459 27.921,48.061 28.503,48.346 29.255 C 48.621 29.982,48.616 56.115,48.340 56.907 C 48.112 57.560,47.977 57.599,47.354 57.191 C 46.646 56.727,44.918 56.652,43.709 57.032 C 42.822 57.311,42.644 57.321,42.505 57.101 C 42.412 56.955,42.340 50.906,42.339 43.176 L 42.336 29.509 42.838 28.714 C 43.705 27.339,45.098 26.897,46.563 27.533 M113.402 27.569 C 114.021 27.843,114.409 28.183,114.794 28.791 L 115.328 29.633 115.326 39.132 C 115.324 44.431,115.250 48.746,115.159 48.890 C 115.018 49.112,114.795 49.103,113.606 48.822 C 112.132 48.475,111.127 48.527,110.218 48.997 C 109.204 49.521,109.215 49.640,109.215 38.854 C 109.215 27.708,109.110 28.467,110.781 27.613 C 111.788 27.097,112.316 27.089,113.402 27.569 M313.623 27.545 C 314.027 27.740,314.597 28.212,314.889 28.594 L 315.420 29.288 315.420 39.088 C 315.420 50.036,315.479 49.557,314.199 48.981 C 313.145 48.507,311.256 48.510,310.459 48.987 C 309.272 49.697,309.307 49.989,309.307 39.202 C 309.307 28.832,309.289 29.040,310.247 28.170 C 311.361 27.159,312.419 26.963,313.623 27.545 M144.811 42.334 C 143.921 42.505,142.816 43.624,142.534 44.639 C 142.267 45.602,142.258 71.229,142.525 71.727 C 142.744 72.137,143.343 72.178,144.658 71.875 C 145.370 71.710,145.792 71.725,146.761 71.946 C 148.724 72.394,148.557 73.757,148.499 57.790 L 148.449 43.996 147.725 43.255 C 147.132 42.647,146.035 42.085,145.620 42.175 C 145.570 42.186,145.206 42.257,144.811 42.334 M245.073 42.325 C 244.054 42.525,243.649 42.833,243.067 43.848 L 242.522 44.799 242.520 58.221 C 242.519 68.418,242.571 71.695,242.737 71.861 C 243.008 72.132,243.844 72.141,244.771 71.883 C 245.285 71.741,245.809 71.748,246.726 71.912 C 248.741 72.273,248.556 73.750,248.499 57.740 L 248.449 43.816 247.813 43.160 C 247.244 42.573,246.965 42.434,245.985 42.251 C 245.835 42.222,245.424 42.256,245.073 42.325 M10.039 43.681 C 8.567 44.848,8.607 44.469,8.591 57.396 C 8.574 70.902,8.298 69.578,11.098 69.423 C 12.170 69.364,13.452 69.396,13.945 69.494 C 15.794 69.862,15.726 70.360,15.659 56.934 L 15.602 45.711 15.076 44.890 C 13.819 42.927,11.648 42.406,10.039 43.681 M210.858 43.242 C 210.657 43.326,210.164 43.735,209.763 44.152 L 209.033 44.908 208.983 56.918 C 208.927 70.653,208.857 70.010,210.353 69.562 C 211.264 69.289,213.361 69.280,214.317 69.546 C 215.780 69.952,215.711 70.609,215.653 56.918 L 215.602 44.911 214.964 44.240 C 213.944 43.170,212.099 42.721,210.858 43.242 M13.703 43.920 C 14.114 44.192,14.523 44.704,14.798 45.291 L 15.237 46.229 15.237 57.497 C 15.237 63.695,15.171 68.832,15.089 68.913 C 14.702 69.300,9.455 69.095,9.184 68.683 C 8.820 68.127,8.908 46.031,9.278 45.130 C 9.965 43.458,12.114 42.871,13.703 43.920 M213.892 43.894 C 214.256 44.127,214.748 44.632,214.987 45.015 L 215.420 45.712 215.474 56.945 C 215.511 64.475,215.466 68.344,215.337 68.681 L 215.146 69.185 213.275 69.061 C 212.014 68.977,211.140 69.009,210.591 69.157 C 209.043 69.577,209.124 70.226,209.125 57.416 C 209.126 45.264,209.121 45.324,210.187 44.283 C 211.330 43.167,212.558 43.038,213.892 43.894 M111.034 50.721 C 110.831 50.804,110.358 51.209,109.985 51.622 L 109.307 52.373 109.307 56.561 C 109.307 61.211,109.329 61.295,110.458 60.902 C 110.785 60.788,111.778 60.758,112.977 60.827 C 114.802 60.931,114.970 60.913,115.142 60.591 C 115.389 60.131,115.383 53.944,115.135 53.052 C 114.633 51.245,112.597 50.087,111.034 50.721 M311.039 50.873 C 310.737 51.063,310.244 51.539,309.944 51.932 L 309.398 52.646 309.344 72.810 C 309.281 96.563,309.185 95.043,310.700 94.253 C 311.388 93.894,313.128 93.904,314.047 94.271 C 315.445 94.831,315.328 96.728,315.328 73.441 L 315.328 52.528 314.444 51.600 C 313.387 50.492,312.085 50.214,311.039 50.873 M44.343 58.964 C 42.301 59.779,42.320 59.645,42.377 72.437 C 42.432 84.588,42.393 84.190,43.466 83.743 C 44.316 83.388,46.652 83.435,47.393 83.821 C 48.383 84.337,48.370 84.494,48.316 71.914 L 48.266 60.425 47.719 59.843 C 46.789 58.855,45.475 58.513,44.343 58.964 M344.194 61.126 C 343.795 61.376,343.438 61.848,343.145 62.510 L 342.701 63.514 342.701 84.198 C 342.701 102.333,342.734 104.910,342.974 105.109 C 343.171 105.273,343.663 105.301,344.757 105.209 C 345.754 105.126,346.572 105.160,347.160 105.308 C 348.866 105.738,348.724 107.669,348.715 84.241 C 348.710 72.986,348.637 63.418,348.553 62.980 C 348.195 61.126,345.811 60.112,344.194 61.126 M77.737 66.996 C 76.896 67.225,76.353 67.860,76.010 69.014 C 75.511 70.694,75.595 101.508,76.100 102.013 C 76.446 102.358,77.557 102.400,78.561 102.106 C 78.794 102.038,80.283 102.281,80.688 102.453 C 80.885 102.537,81.128 102.448,81.373 102.204 C 81.816 101.761,81.984 70.608,81.552 68.894 C 81.146 67.280,79.569 66.496,77.737 66.996 M278.030 66.971 C 276.040 67.592,276.097 67.042,276.096 85.589 C 276.095 103.401,276.055 102.774,277.150 102.349 C 277.430 102.240,278.515 102.183,279.647 102.219 C 282.410 102.305,282.126 104.271,282.072 85.401 L 282.026 69.434 281.589 68.467 C 280.991 67.144,279.493 66.514,278.030 66.971 M10.660 71.162 C 9.133 71.780,9.094 72.090,9.160 82.977 C 9.222 93.070,9.195 92.868,10.398 92.246 C 10.993 91.938,12.186 91.942,13.945 92.255 C 15.188 92.477,15.146 92.811,15.144 82.675 L 15.142 73.631 14.698 72.677 C 14.004 71.187,12.237 70.524,10.660 71.162 M210.840 71.163 C 210.629 71.248,210.198 71.670,209.882 72.100 L 209.307 72.882 209.309 82.472 C 209.312 93.162,209.260 92.738,210.528 92.283 C 211.605 91.898,212.757 91.887,213.959 92.251 C 215.419 92.694,215.345 93.245,215.287 82.395 L 215.237 72.901 214.726 72.172 C 213.970 71.091,212.173 70.624,210.840 71.163 M178.102 94.132 C 176.904 94.692,176.455 95.139,176.188 96.035 C 175.815 97.293,175.770 117.040,176.141 117.279 C 176.266 117.361,177.354 117.444,178.558 117.465 C 179.763 117.487,180.898 117.512,181.082 117.521 C 181.951 117.567,181.935 117.763,181.926 107.049 C 181.917 95.368,181.945 95.598,180.408 94.571 C 179.543 93.993,178.730 93.838,178.102 94.132 M381.113 94.264 C 379.169 95.274,379.199 95.073,379.198 106.868 C 379.197 118.503,379.107 117.887,380.749 117.517 C 381.309 117.391,382.242 117.360,383.167 117.437 C 385.432 117.624,385.219 118.712,385.217 106.958 L 385.215 96.807 384.784 95.879 C 384.061 94.328,382.399 93.597,381.113 94.264 M46.539 163.674 C 46.427 163.883,46.350 165.489,46.350 167.609 C 46.350 171.833,46.516 172.368,47.609 171.685 C 47.880 171.516,48.087 171.536,48.603 171.781 C 50.725 172.788,52.675 169.722,51.579 167.102 C 51.181 166.148,50.826 165.969,49.288 165.948 C 47.762 165.928,47.454 165.692,47.448 164.541 C 47.445 163.964,47.155 163.321,46.898 163.321 C 46.805 163.321,46.643 163.480,46.539 163.674 M216.717 163.792 C 216.466 164.445,216.596 171.298,216.863 171.519 C 217.645 172.168,218.202 164.818,217.447 163.823 C 217.145 163.426,216.862 163.414,216.717 163.792 M307.299 163.967 C 305.359 164.831,304.574 167.929,305.768 170.015 C 307.519 173.072,311.914 172.438,312.570 169.034 C 313.306 165.216,310.517 162.535,307.299 163.967 M34.161 164.088 C 33.888 164.360,33.853 170.546,34.120 171.247 C 34.510 172.273,35.215 171.332,35.218 169.782 C 35.219 169.145,35.515 168.828,36.633 168.266 C 37.589 167.785,37.612 167.570,36.724 167.415 C 35.597 167.217,35.219 166.881,35.219 166.077 C 35.219 165.174,35.427 165.024,36.818 164.928 C 38.144 164.836,38.609 164.537,38.058 164.130 C 37.605 163.795,34.487 163.761,34.161 164.088 M68.993 164.279 C 68.776 164.835,68.238 169.212,68.247 170.347 C 68.262 172.307,69.206 171.857,69.650 169.678 C 70.030 167.817,70.832 167.411,71.086 168.951 C 71.306 170.286,72.077 171.533,72.682 171.533 C 73.023 171.533,74.048 169.547,74.289 168.420 C 74.604 166.953,75.334 167.454,75.635 169.343 C 75.794 170.338,76.369 171.715,76.626 171.715 C 77.267 171.715,77.308 170.123,76.736 167.423 C 76.588 166.723,76.465 165.735,76.463 165.228 C 76.456 163.189,74.508 163.470,74.195 165.555 C 74.126 166.019,73.920 166.588,73.738 166.821 C 73.413 167.238,73.319 167.481,73.097 168.476 C 73.036 168.752,72.871 168.978,72.730 168.978 C 72.417 168.978,71.233 166.590,71.081 165.653 C 70.854 164.252,69.381 163.283,68.993 164.279 M106.249 164.079 C 106.124 164.204,106.021 164.434,106.021 164.589 C 106.020 164.745,105.858 165.117,105.660 165.417 C 105.463 165.716,105.248 166.332,105.182 166.786 C 105.116 167.239,104.853 167.970,104.597 168.411 C 103.996 169.446,103.885 171.624,104.432 171.624 C 104.623 171.624,104.928 171.321,105.167 170.894 L 105.576 170.164 106.913 170.110 C 108.441 170.049,108.933 170.265,109.304 171.162 C 109.453 171.521,109.649 171.712,109.834 171.677 C 110.259 171.596,110.323 170.221,109.936 169.475 C 109.769 169.151,109.487 168.353,109.310 167.701 C 109.030 166.667,108.451 165.095,108.033 164.234 C 107.865 163.886,106.555 163.773,106.249 164.079 M138.776 164.121 C 138.020 164.674,137.862 171.715,138.605 171.715 C 139.010 171.715,139.116 171.346,139.246 169.473 C 139.394 167.336,139.599 166.993,140.118 168.011 C 140.319 168.406,140.611 168.834,140.767 168.963 C 140.922 169.092,141.101 169.497,141.165 169.863 C 141.491 171.723,142.744 171.955,143.306 170.260 C 143.488 169.710,143.734 169.144,143.853 169.002 C 143.972 168.859,144.193 168.413,144.343 168.009 C 144.889 166.545,145.197 166.936,145.372 169.313 C 145.527 171.425,146.074 172.285,146.518 171.115 C 146.776 170.437,146.304 164.249,145.978 164.043 C 145.592 163.798,144.754 163.831,144.585 164.097 C 144.153 164.775,143.452 166.677,143.171 167.929 C 142.909 169.101,141.516 168.445,141.249 167.023 C 140.812 164.695,139.729 163.424,138.776 164.121 M177.409 164.088 C 177.258 164.238,177.190 165.152,177.190 167.014 L 177.190 169.722 176.353 170.535 C 175.078 171.774,175.937 172.463,177.515 171.466 C 178.394 170.912,178.462 170.595,178.465 167.096 C 178.467 164.141,178.178 163.318,177.409 164.088 M207.221 164.155 C 206.987 164.389,206.934 164.922,206.934 167.046 L 206.934 169.650 206.204 170.395 C 204.894 171.732,205.769 172.570,207.298 171.442 C 208.209 170.770,208.206 170.785,208.209 167.418 C 208.212 163.942,208.031 163.345,207.221 164.155 M236.813 164.232 C 236.510 164.471,236.273 164.926,236.125 165.555 C 236.001 166.083,235.751 166.811,235.569 167.173 C 235.387 167.534,235.119 168.315,234.974 168.906 C 234.828 169.498,234.605 170.237,234.478 170.548 C 233.951 171.838,234.534 172.017,235.615 170.897 C 236.807 169.663,238.384 169.662,239.579 170.894 C 240.806 172.161,241.381 171.746,240.697 170.087 C 240.508 169.627,240.223 168.784,240.065 168.212 C 239.906 167.640,239.699 167.124,239.604 167.066 C 239.510 167.007,239.332 166.451,239.210 165.830 C 238.858 164.042,237.882 163.391,236.813 164.232 M271.758 164.058 C 270.351 164.623,270.809 167.379,272.426 168.075 C 274.834 169.111,274.742 171.124,272.295 170.953 C 271.496 170.898,271.442 170.923,271.442 171.339 C 271.442 172.226,273.363 172.305,274.626 171.470 C 276.443 170.267,275.741 168.116,273.149 166.942 C 271.642 166.260,272.085 164.964,273.826 164.964 C 274.904 164.964,275.396 164.619,275.000 164.142 C 274.742 163.831,272.471 163.772,271.758 164.058 M336.633 164.066 C 336.308 164.255,336.128 170.471,336.425 171.244 C 336.790 172.197,337.586 171.158,337.613 169.694 C 337.656 167.342,338.347 166.565,339.083 168.040 C 339.251 168.376,339.550 168.828,339.747 169.043 C 339.943 169.258,340.165 169.640,340.239 169.891 C 340.674 171.369,341.897 172.170,342.618 171.450 C 343.135 170.932,343.332 164.756,342.847 164.270 C 342.026 163.449,341.423 164.283,341.423 166.241 C 341.423 167.482,341.355 167.925,341.130 168.150 C 340.815 168.466,340.328 168.250,340.328 167.795 C 340.328 167.670,340.082 167.258,339.781 166.880 C 339.480 166.501,339.234 166.108,339.234 166.007 C 339.234 164.868,337.490 163.567,336.633 164.066 M372.930 164.202 C 372.422 164.763,372.485 170.755,373.006 171.417 C 373.822 172.454,377.579 171.796,378.424 170.467 C 378.594 170.200,378.784 169.941,378.846 169.891 C 380.266 168.752,379.162 165.146,377.065 164.073 C 376.363 163.713,373.285 163.810,372.930 164.202 M3.200 164.462 C 3.150 164.688,3.087 166.079,3.060 167.554 L 3.011 170.236 2.397 170.869 C 1.708 171.580,1.765 171.898,2.584 171.898 C 2.972 171.898,3.326 171.711,3.759 171.277 L 4.380 170.657 4.380 167.573 C 4.380 165.418,4.314 164.423,4.161 164.270 C 3.804 163.914,3.300 164.014,3.200 164.462 M320.597 164.761 C 319.742 165.433,319.418 166.371,319.842 166.946 C 320.101 167.297,320.227 167.862,320.309 169.039 C 320.450 171.039,320.814 171.779,321.702 171.865 C 322.537 171.946,322.846 171.609,322.309 171.203 C 321.407 170.522,321.208 167.786,322.000 166.959 L 322.467 166.472 322.007 165.763 C 321.034 164.265,321.135 164.337,320.597 164.761 M310.613 165.484 C 311.593 166.360,311.598 169.062,310.621 170.000 C 308.372 172.161,305.673 169.356,307.013 166.250 C 307.495 165.133,307.719 164.995,309.076 164.976 C 309.878 164.966,310.124 165.047,310.613 165.484 M376.559 165.069 C 377.018 165.192,377.919 166.642,378.054 167.475 C 378.385 169.516,375.208 172.076,374.366 170.447 C 374.012 169.762,373.964 165.525,374.307 165.182 C 374.531 164.958,375.892 164.889,376.559 165.069 M316.423 165.833 C 314.563 166.092,313.196 168.126,313.933 169.538 C 314.067 169.795,314.228 170.210,314.291 170.460 C 314.515 171.351,316.284 172.215,317.440 171.999 C 318.302 171.837,318.235 171.309,317.334 171.159 C 315.637 170.877,314.912 169.497,315.529 167.727 C 315.741 167.120,315.909 167.040,317.430 166.823 C 318.041 166.735,318.339 166.606,318.339 166.429 C 318.339 166.123,317.103 165.738,316.423 165.833 M6.980 166.064 C 6.302 166.337,6.467 166.785,7.254 166.810 C 7.630 166.822,8.183 166.884,8.483 166.948 C 9.475 167.160,9.226 168.248,8.186 168.248 C 7.330 168.248,6.242 169.046,6.106 169.774 C 5.794 171.434,7.260 172.159,10.068 171.734 C 10.564 171.659,10.744 167.663,10.301 166.546 C 10.056 165.926,8.048 165.635,6.980 166.064 M12.479 166.327 C 11.884 167.176,12.266 171.805,12.921 171.679 C 13.302 171.605,13.454 170.922,13.482 169.156 C 13.509 167.466,13.787 166.971,14.708 166.971 C 15.822 166.971,16.241 167.594,16.241 169.253 C 16.241 171.331,16.929 172.459,17.326 171.031 C 17.797 169.335,17.463 166.876,16.677 166.258 C 16.003 165.727,12.863 165.779,12.479 166.327 M41.066 166.037 C 40.500 166.195,39.418 167.947,39.417 168.707 C 39.414 170.534,41.679 172.371,43.375 171.917 C 44.214 171.693,44.004 171.280,42.974 171.133 C 40.768 170.818,40.816 168.808,43.024 169.065 C 43.922 169.169,44.155 169.133,44.526 168.832 L 44.966 168.476 44.513 167.320 C 44.168 166.440,43.952 166.134,43.608 166.038 C 43.029 165.877,41.644 165.876,41.066 166.037 M79.599 166.095 C 79.313 166.381,79.318 166.783,79.608 166.807 C 79.733 166.818,80.148 166.846,80.530 166.870 C 81.955 166.958,82.033 168.248,80.614 168.248 C 78.899 168.248,77.970 170.174,79.151 171.279 L 79.836 171.919 81.387 171.801 C 83.327 171.653,83.290 171.695,83.365 169.542 C 83.432 167.608,83.090 166.482,82.311 166.064 C 81.825 165.805,79.867 165.827,79.599 166.095 M85.552 166.005 C 84.716 166.133,84.636 166.403,84.702 168.869 C 84.773 171.523,84.961 171.951,85.688 171.112 C 86.048 170.696,86.131 170.401,86.131 169.538 C 86.131 168.248,86.533 167.212,87.140 166.935 C 88.391 166.365,87.315 165.736,85.552 166.005 M112.207 166.260 C 111.722 166.745,111.767 173.159,112.259 173.651 C 112.695 174.088,113.069 173.859,113.196 173.077 C 113.354 172.099,113.762 171.710,114.429 171.902 C 116.011 172.355,117.403 170.990,117.491 168.898 L 117.554 167.376 116.878 166.628 L 116.203 165.881 114.375 165.900 C 112.850 165.916,112.492 165.975,112.207 166.260 M119.767 166.007 C 118.871 166.119,118.761 166.395,118.744 168.563 C 118.727 170.749,118.851 171.350,119.319 171.350 C 119.842 171.350,120.073 170.958,120.073 170.070 C 120.073 168.591,120.549 167.365,121.295 166.925 L 121.948 166.540 121.538 166.208 C 121.136 165.883,120.939 165.860,119.767 166.007 M149.291 166.107 C 148.573 166.478,148.752 166.688,149.909 166.832 C 151.306 167.006,151.460 167.070,151.460 167.476 C 151.460 167.964,151.098 168.247,150.465 168.254 C 148.742 168.273,147.745 170.218,148.878 171.351 C 149.645 172.119,151.965 172.150,152.555 171.400 C 153.222 170.552,152.920 166.518,152.153 166.032 C 151.789 165.801,149.780 165.853,149.291 166.107 M187.960 166.012 C 187.410 166.050,186.898 166.178,186.822 166.297 C 186.659 166.555,186.635 170.530,186.794 171.122 C 187.081 172.192,187.772 171.303,187.778 169.857 C 187.787 167.615,189.206 166.213,190.328 167.336 C 190.641 167.648,190.693 167.944,190.693 169.399 C 190.693 171.360,190.998 172.121,191.515 171.452 C 191.723 171.183,191.788 170.579,191.788 168.935 C 191.788 165.799,191.730 165.754,187.960 166.012 M238.083 166.620 C 238.573 168.025,238.247 169.153,237.427 168.893 C 236.909 168.728,236.796 168.188,237.052 167.097 C 237.398 165.622,237.688 165.488,238.083 166.620 M250.076 166.041 C 248.361 166.788,248.465 170.943,250.207 171.291 C 250.499 171.350,250.777 171.461,250.825 171.539 C 250.873 171.617,251.241 171.637,251.642 171.583 L 252.372 171.485 252.372 172.219 C 252.372 173.078,252.216 173.175,250.826 173.175 C 249.112 173.175,249.366 174.038,251.128 174.202 C 252.350 174.316,253.119 173.938,253.904 172.838 C 254.574 171.900,254.889 167.102,254.330 166.351 C 254.038 165.960,250.803 165.724,250.076 166.041 M278.171 166.138 C 276.526 166.854,276.586 170.240,278.264 171.385 C 279.154 171.992,280.617 172.193,281.044 171.766 C 281.363 171.447,281.056 171.168,280.386 171.168 C 279.711 171.168,278.755 170.495,278.603 169.913 C 278.425 169.235,278.739 169.079,280.307 169.060 C 282.404 169.035,282.602 168.703,281.620 166.856 C 281.070 165.822,279.601 165.516,278.171 166.138 M283.672 166.204 C 283.397 166.922,283.580 173.918,283.877 174.032 C 284.277 174.185,284.672 173.624,284.672 172.901 C 284.672 171.946,284.986 171.708,285.994 171.902 C 288.390 172.363,289.869 169.940,288.837 167.244 C 288.568 166.541,288.304 166.156,288.017 166.047 C 287.320 165.782,283.785 165.910,283.672 166.204 M345.712 166.083 C 343.957 166.963,343.792 169.894,345.418 171.285 C 347.987 173.482,351.367 170.209,349.681 167.158 C 349.017 165.956,347.036 165.420,345.712 166.083 M381.833 166.051 C 378.959 167.215,380.308 171.898,383.518 171.898 C 385.004 171.898,385.090 171.476,383.677 171.113 C 382.983 170.936,382.748 170.765,382.433 170.209 C 381.893 169.257,382.139 169.059,383.807 169.106 C 385.557 169.155,385.989 168.606,385.406 167.074 C 385.035 166.097,383.092 165.541,381.833 166.051 M388.182 166.065 C 387.954 166.156,387.697 166.418,387.610 166.647 C 387.522 166.875,387.277 167.218,387.065 167.410 C 385.309 168.991,388.580 172.985,390.678 171.823 C 391.189 171.540,390.945 171.324,389.850 171.089 C 388.552 170.811,387.713 169.076,388.309 167.907 C 388.699 167.143,388.827 167.074,390.314 166.826 C 390.758 166.752,391.155 166.591,391.196 166.467 C 391.362 165.968,389.157 165.673,388.182 166.065 M154.444 166.249 C 154.213 166.481,154.675 168.300,155.147 169.016 C 156.110 170.477,156.037 172.071,154.954 173.229 C 154.463 173.755,154.586 174.077,155.282 174.085 C 155.782 174.090,157.444 172.164,157.666 171.321 C 157.781 170.886,158.074 170.148,158.317 169.681 C 158.560 169.215,158.761 168.640,158.763 168.404 C 158.765 168.168,158.923 167.632,159.113 167.214 C 159.502 166.355,159.458 166.241,158.735 166.241 C 158.130 166.241,157.965 166.504,157.672 167.929 C 157.537 168.583,157.363 168.978,157.209 168.978 C 156.709 168.978,155.881 168.073,155.752 167.386 C 155.523 166.161,154.993 165.701,154.444 166.249 M180.328 166.277 C 179.992 166.614,180.036 170.314,180.385 170.989 C 180.811 171.812,181.235 171.949,182.897 171.802 C 185.123 171.605,185.245 171.433,185.179 168.570 L 185.128 166.332 184.489 166.332 L 183.850 166.332 183.748 168.066 C 183.651 169.693,183.213 171.168,182.825 171.168 C 181.802 171.168,181.387 170.295,181.387 168.145 C 181.387 166.123,181.060 165.546,180.328 166.277 M210.059 166.355 C 209.106 167.024,209.861 171.461,210.989 171.819 C 212.245 172.218,214.743 171.493,214.808 170.712 C 214.981 168.639,214.762 166.404,214.370 166.252 C 213.715 165.997,213.504 166.468,213.504 168.186 C 213.504 172.367,211.344 172.259,211.135 168.068 C 211.032 165.983,210.896 165.767,210.059 166.355 M242.465 166.172 C 242.394 166.243,242.336 167.278,242.336 168.470 L 242.336 170.639 243.020 171.268 C 243.750 171.938,244.705 172.108,245.463 171.702 C 245.709 171.570,245.995 171.564,246.337 171.683 C 247.281 172.012,247.354 171.808,247.354 168.848 L 247.354 166.150 246.898 166.150 C 246.450 166.150,246.440 166.180,246.350 167.884 C 246.259 169.628,245.455 171.326,244.822 171.115 C 244.039 170.854,243.521 169.661,243.431 167.912 C 243.340 166.161,243.032 165.606,242.465 166.172 M351.479 166.309 C 351.195 166.652,351.549 168.284,352.121 169.268 C 352.360 169.678,352.555 170.154,352.555 170.326 C 352.555 171.071,353.092 171.715,353.713 171.715 C 354.415 171.715,355.061 170.441,356.325 166.560 C 356.409 166.302,356.321 166.241,355.865 166.241 C 355.201 166.241,354.846 166.699,354.664 167.792 C 354.597 168.193,354.500 168.666,354.449 168.841 C 354.197 169.700,352.854 168.652,352.636 167.427 C 352.406 166.132,351.973 165.714,351.479 166.309 M107.468 166.713 C 108.441 167.532,108.197 168.978,107.087 168.978 C 106.285 168.978,105.941 167.869,106.382 166.709 C 106.605 166.122,106.766 166.123,107.468 166.713 M383.907 167.063 C 384.545 167.247,384.369 167.918,383.628 168.130 C 382.403 168.480,381.429 167.620,382.436 167.077 C 382.926 166.813,383.034 166.812,383.907 167.063 M43.192 167.269 C 43.389 167.783,42.990 168.157,42.245 168.157 C 41.499 168.157,41.100 167.783,41.297 167.269 C 41.380 167.053,41.642 166.971,42.245 166.971 C 42.847 166.971,43.109 167.053,43.192 167.269 M50.089 167.220 C 50.772 167.720,50.711 169.613,49.987 170.360 C 49.235 171.136,48.836 171.147,48.209 170.407 C 46.692 168.616,48.291 165.906,50.089 167.220 M115.806 167.399 C 116.943 168.377,116.017 171.115,114.607 170.948 C 113.524 170.820,112.869 168.230,113.673 167.260 C 114.044 166.813,115.213 166.889,115.806 167.399 M252.306 167.110 C 252.738 167.389,253.087 168.578,252.914 169.181 C 252.352 171.141,250.365 170.801,250.365 168.745 C 250.365 167.267,251.313 166.469,252.306 167.110 M280.473 167.242 C 280.987 167.862,280.002 168.473,279.036 168.134 C 278.506 167.947,278.300 167.372,278.677 167.132 C 279.078 166.878,280.229 166.949,280.473 167.242 M287.418 167.256 C 287.821 167.741,287.871 169.499,287.502 170.185 C 287.138 170.860,286.243 171.290,285.950 170.931 C 285.048 169.823,284.838 169.490,284.743 169.019 C 284.453 167.567,286.537 166.194,287.418 167.256 M348.067 167.081 C 348.797 167.361,348.848 169.493,348.147 170.477 C 347.790 170.979,346.533 171.243,346.533 170.817 C 346.533 170.724,346.340 170.416,346.104 170.133 C 344.728 168.475,346.108 166.329,348.067 167.081 M8.940 169.250 C 9.311 169.697,9.014 171.168,8.553 171.168 C 7.814 171.168,7.482 170.829,7.482 170.076 C 7.482 169.100,8.389 168.586,8.940 169.250 M81.367 169.297 C 81.798 169.654,81.587 170.920,81.062 171.121 C 80.420 171.368,79.845 169.817,80.379 169.282 C 80.761 168.900,80.889 168.902,81.367 169.297 M151.278 169.253 C 151.543 169.572,151.381 170.991,151.056 171.192 C 150.202 171.720,149.123 169.928,149.854 169.197 C 150.160 168.891,151.005 168.924,151.278 169.253 " stroke="none" fill="#8ec7ee" fill-rule="evenodd"></path><path id="path4" d="M143.994 5.340 C 143.753 5.464,143.280 5.965,142.945 6.452 L 142.336 7.339 142.336 23.708 C 142.336 41.896,142.268 40.925,143.502 40.518 C 144.396 40.223,146.468 40.218,147.351 40.510 C 148.613 40.926,148.542 41.954,148.527 23.551 C 148.520 14.462,148.459 6.891,148.390 6.727 C 147.856 5.441,145.344 4.649,143.994 5.340 M244.225 5.291 C 243.719 5.495,242.907 6.564,242.596 7.436 C 242.286 8.305,242.216 39.260,242.523 40.066 L 242.709 40.557 244.028 40.408 C 245.554 40.236,246.907 40.272,247.510 40.501 C 247.996 40.686,248.219 40.579,248.513 40.021 C 248.766 39.540,248.801 8.608,248.549 7.305 C 248.212 5.558,246.055 4.552,244.225 5.291 M343.966 5.604 C 343.643 5.876,343.186 6.512,342.950 7.018 L 342.522 7.938 342.520 33.087 C 342.519 51.031,342.576 58.343,342.719 58.611 C 342.907 58.962,343.024 58.978,344.542 58.859 C 345.626 58.774,346.505 58.808,347.193 58.962 C 348.140 59.174,348.241 59.165,348.472 58.850 C 348.800 58.401,348.850 7.720,348.524 6.783 C 347.976 5.213,345.264 4.512,343.966 5.604 M147.326 6.364 L 148.084 7.122 148.084 23.491 L 148.084 39.861 145.532 39.861 L 142.981 39.861 142.834 38.984 C 142.753 38.501,142.711 31.278,142.739 22.931 L 142.792 7.755 143.282 7.003 C 144.465 5.184,145.917 4.955,147.326 6.364 M247.137 6.134 C 248.267 7.014,248.195 5.737,248.136 23.905 L 248.084 39.872 245.803 39.875 C 244.548 39.877,243.419 39.805,243.294 39.716 C 242.914 39.446,242.967 8.385,243.349 7.263 C 243.957 5.479,245.649 4.975,247.137 6.134 M347.192 6.037 C 347.582 6.347,347.984 6.737,348.084 6.904 C 348.310 7.281,348.439 57.026,348.216 57.886 L 348.064 58.471 345.811 58.445 C 344.171 58.425,343.517 58.353,343.406 58.178 C 343.179 57.819,343.208 8.090,343.436 7.269 C 343.909 5.567,345.812 4.943,347.192 6.037 M77.942 14.234 C 77.009 14.454,76.407 14.998,76.004 15.986 C 75.557 17.079,75.414 64.356,75.856 64.798 C 76.277 65.219,81.378 65.129,81.681 64.696 C 82.074 64.136,82.057 17.632,81.664 16.309 C 81.180 14.679,79.658 13.831,77.942 14.234 M178.015 14.258 C 177.025 14.489,176.340 15.201,176.008 16.345 C 175.569 17.853,175.587 91.504,176.026 92.130 C 176.340 92.577,176.445 92.579,178.057 92.167 C 178.617 92.024,179.048 92.025,179.608 92.169 C 180.855 92.491,181.460 92.542,181.752 92.348 C 181.994 92.188,182.026 87.772,182.026 54.432 L 182.026 16.697 181.569 15.788 C 180.892 14.437,179.611 13.886,178.015 14.258 M278.131 14.233 C 277.267 14.437,276.350 15.393,276.112 16.341 C 275.784 17.641,275.835 64.225,276.165 64.695 C 276.427 65.069,281.339 65.240,281.899 64.894 C 282.066 64.791,282.117 59.167,282.117 40.779 L 282.117 16.799 281.668 15.784 C 281.084 14.463,279.710 13.861,278.131 14.233 M381.337 14.234 C 380.959 14.303,380.438 14.557,380.179 14.799 C 379.127 15.781,379.197 12.992,379.197 54.166 C 379.197 95.403,379.130 92.710,380.154 92.461 C 380.380 92.406,380.889 92.279,381.283 92.178 C 381.767 92.054,382.273 92.055,382.834 92.180 C 384.764 92.611,385.015 92.600,385.216 92.069 C 385.339 91.745,385.401 79.079,385.401 54.322 L 385.401 17.062 384.858 15.914 C 384.167 14.453,383.049 13.920,381.337 14.234 M80.367 15.258 C 80.734 15.548,81.092 15.990,81.164 16.241 C 81.337 16.840,81.336 64.346,81.163 64.518 C 81.090 64.591,80.531 64.570,79.920 64.471 C 79.245 64.363,78.408 64.355,77.787 64.453 C 77.092 64.562,76.703 64.549,76.567 64.414 C 76.349 64.196,76.163 19.097,76.372 17.028 C 76.599 14.785,78.631 13.884,80.367 15.258 M180.479 15.178 C 180.787 15.406,181.103 15.864,181.204 16.230 C 181.473 17.196,181.453 91.361,181.184 91.527 C 181.073 91.596,179.985 91.657,178.766 91.663 L 176.551 91.673 176.551 53.776 L 176.551 15.879 177.050 15.417 C 178.044 14.495,179.425 14.399,180.479 15.178 M280.747 15.335 L 281.296 15.883 281.296 40.195 L 281.296 64.507 280.657 64.476 C 280.306 64.460,279.526 64.446,278.923 64.446 C 278.321 64.446,277.541 64.460,277.190 64.476 L 276.551 64.507 276.551 40.298 L 276.551 16.089 277.190 15.455 C 278.247 14.405,279.767 14.354,280.747 15.335 M383.490 15.041 C 384.677 15.819,384.576 12.360,384.624 53.733 C 384.649 74.312,384.598 91.259,384.513 91.393 C 384.221 91.849,379.752 91.796,379.641 91.335 C 379.592 91.133,379.575 74.167,379.603 53.634 L 379.653 16.302 380.277 15.587 C 381.183 14.549,382.418 14.339,383.490 15.041 M44.069 27.563 C 43.622 27.781,43.145 28.227,42.838 28.714 L 42.336 29.509 42.339 43.176 C 42.340 50.906,42.412 56.955,42.505 57.101 C 42.644 57.321,42.822 57.311,43.709 57.032 C 44.918 56.652,46.646 56.727,47.354 57.191 C 47.977 57.599,48.112 57.560,48.340 56.907 C 48.616 56.115,48.621 29.982,48.346 29.255 C 47.720 27.605,45.659 26.789,44.069 27.563 M110.781 27.613 C 109.110 28.467,109.215 27.708,109.215 38.854 C 109.215 49.640,109.204 49.521,110.218 48.997 C 111.127 48.527,112.132 48.475,113.606 48.822 C 114.795 49.103,115.018 49.112,115.159 48.890 C 115.250 48.746,115.324 44.431,115.326 39.132 L 115.328 29.633 114.794 28.791 C 113.863 27.323,112.265 26.854,110.781 27.613 M311.223 27.493 C 309.235 28.541,309.307 28.105,309.307 39.202 C 309.307 49.989,309.272 49.697,310.459 48.987 C 311.256 48.510,313.145 48.507,314.199 48.981 C 315.479 49.557,315.420 50.036,315.420 39.088 L 315.420 29.288 314.889 28.594 C 313.937 27.350,312.380 26.883,311.223 27.493 M47.310 28.664 C 48.184 29.692,48.175 29.546,48.175 43.238 C 48.175 57.095,48.187 56.896,47.354 56.560 C 47.153 56.479,46.024 56.407,44.845 56.400 L 42.701 56.387 42.701 43.294 L 42.701 30.201 43.231 29.199 C 43.836 28.055,44.123 27.914,45.698 27.988 C 46.675 28.034,46.830 28.099,47.310 28.664 M113.455 28.113 C 114.709 28.550,114.781 29.150,114.781 39.148 C 114.781 45.339,114.721 48.008,114.581 48.095 C 114.009 48.448,109.661 48.287,109.566 47.909 C 109.515 47.704,109.497 43.467,109.526 38.493 L 109.580 29.449 110.106 28.821 C 110.872 27.905,112.109 27.643,113.455 28.113 M314.256 28.663 C 315.148 29.731,315.166 29.959,315.109 39.404 L 315.055 48.243 312.363 48.258 L 309.672 48.274 309.675 39.055 L 309.678 29.836 310.233 29.015 C 311.139 27.672,313.273 27.486,314.256 28.663 M11.310 43.407 C 10.604 43.583,9.544 44.481,9.278 45.130 C 8.908 46.031,8.820 68.127,9.184 68.683 C 9.455 69.095,14.702 69.300,15.089 68.913 C 15.171 68.832,15.237 63.695,15.237 57.497 L 15.237 46.229 14.798 45.291 C 14.137 43.880,12.645 43.074,11.310 43.407 M211.421 43.439 C 210.672 43.662,209.518 44.849,209.305 45.614 C 209.197 46.004,209.126 50.677,209.125 57.416 C 209.124 70.226,209.043 69.577,210.591 69.157 C 211.140 69.009,212.014 68.977,213.275 69.061 L 215.146 69.185 215.337 68.681 C 215.466 68.344,215.511 64.475,215.474 56.945 L 215.420 45.712 214.987 45.015 C 214.212 43.769,212.642 43.075,211.421 43.439 M12.774 44.064 C 13.025 44.209,13.407 44.408,13.623 44.506 C 14.477 44.896,14.507 45.332,14.507 57.153 C 14.507 69.710,14.633 68.786,12.973 68.477 C 12.139 68.322,11.654 68.329,10.881 68.509 C 10.174 68.673,9.817 68.686,9.682 68.550 C 9.384 68.252,9.422 46.038,9.721 45.446 C 10.322 44.259,11.885 43.551,12.774 44.064 M213.390 44.248 C 214.933 45.152,214.865 44.582,214.923 57.257 C 214.982 70.042,215.177 68.818,213.136 68.468 C 212.112 68.292,211.752 68.307,210.870 68.557 C 209.395 68.977,209.481 69.717,209.534 57.117 L 209.580 45.894 210.036 45.278 C 211.091 43.856,212.160 43.527,213.390 44.248 " stroke="none" fill="#7484fc" fill-rule="evenodd"></path></g></svg>