<?xml version="1.0" encoding="UTF-8"?>
<!DOCTYPE svg PUBLIC "-//W3C//DTD SVG 1.1//EN" "http://www.w3.org/Graphics/SVG/1.1/DTD/svg11.dtd">
<svg xmlns="http://www.w3.org/2000/svg" version="1.1" width="50px" height="50px" style="shape-rendering:geometricPrecision; text-rendering:geometricPrecision; image-rendering:optimizeQuality; fill-rule:evenodd; clip-rule:evenodd" xmlns:xlink="http://www.w3.org/1999/xlink">
<g><path style="opacity:0.941" fill="#000000" d="M 49.5,33.5 C 49.5,38.8333 49.5,44.1667 49.5,49.5C 43.5,49.5 37.5,49.5 31.5,49.5C 31.5,48.5 31.5,47.5 31.5,46.5C 22.8333,46.5 14.1667,46.5 5.5,46.5C 5.5,31.8333 5.5,17.1667 5.5,2.5C 17.5,2.5 29.5,2.5 41.5,2.5C 41.5,12.1667 41.5,21.8333 41.5,31.5C 44.5133,31.1072 47.1799,31.7739 49.5,33.5 Z M 7.5,4.5 C 11.8333,4.5 16.1667,4.5 20.5,4.5C 20.1584,15.6882 19.9917,26.6882 20,37.5C 22.3333,38.8333 24.6667,38.8333 27,37.5C 27.0083,26.6882 26.8416,15.6882 26.5,4.5C 30.8333,4.5 35.1667,4.5 39.5,4.5C 39.5,13.5 39.5,22.5 39.5,31.5C 36.8333,31.5 34.1667,31.5 31.5,31.5C 31.5,35.8333 31.5,40.1667 31.5,44.5C 23.5,44.5 15.5,44.5 7.5,44.5C 7.5,31.1667 7.5,17.8333 7.5,4.5 Z M 22.5,5.5 C 23.472,4.24863 24.1386,4.58196 24.5,6.5C 23.5865,12.4136 23.2532,18.0803 23.5,23.5C 22.9235,17.3447 22.5901,11.3447 22.5,5.5 Z M 22.5,30.5 C 24.4646,30.9483 24.7979,31.9483 23.5,33.5C 22.6143,32.675 22.281,31.675 22.5,30.5 Z M 33.5,33.5 C 45.1667,31.1667 49.8333,35.8333 47.5,47.5C 42.8333,47.5 38.1667,47.5 33.5,47.5C 33.5,42.8333 33.5,38.1667 33.5,33.5 Z"/></g>
<g><path style="opacity:1" fill="#000000" d="M 36.5,35.5 C 39.2469,35.1866 41.9135,35.52 44.5,36.5C 43.1667,36.8333 41.8333,37.1667 40.5,37.5C 38.6672,37.4146 37.3339,36.7479 36.5,35.5 Z"/></g>
<g><path style="opacity:0.766" fill="#000000" d="M 38.5,41.5 C 39.8333,41.5 41.1667,41.5 42.5,41.5C 42.5,42.8333 42.5,44.1667 42.5,45.5C 41.1667,45.5 39.8333,45.5 38.5,45.5C 38.5,44.1667 38.5,42.8333 38.5,41.5 Z"/></g>
</svg>
