<?xml version="1.0" encoding="UTF-8"?>
<!DOCTYPE svg PUBLIC "-//W3C//DTD SVG 1.1//EN" "http://www.w3.org/Graphics/SVG/1.1/DTD/svg11.dtd">
<svg xmlns="http://www.w3.org/2000/svg" version="1.1" width="235px" height="234px" style="shape-rendering:geometricPrecision; text-rendering:geometricPrecision; image-rendering:optimizeQuality; fill-rule:evenodd; clip-rule:evenodd" xmlns:xlink="http://www.w3.org/1999/xlink">
<g><path style="opacity:1" fill="#d3dcfb" d="M 134.5,39.5 C 134.714,37.8561 134.38,36.3561 133.5,35C 136.129,32.2108 135.462,30.2108 131.5,29C 133.592,28.0475 133.925,26.7141 132.5,25C 133.167,24.6667 133.833,24.3333 134.5,24C 133.275,22.437 131.775,21.2703 130,20.5C 126.516,21.8244 123.682,23.9911 121.5,27C 121.833,27.3333 122.167,27.6667 122.5,28C 121.272,31.4207 119.939,34.754 118.5,38C 118.167,38.1667 117.833,38.3333 117.5,38.5C 116.82,35.6398 115.487,33.1398 113.5,31C 112.551,30.3828 111.718,30.5494 111,31.5C 110.545,34.8536 110.045,38.1869 109.5,41.5C 108.508,41.6716 107.842,41.3382 107.5,40.5C 108.319,32.4865 111.985,25.9865 118.5,21C 129.446,15.6394 135.78,18.9727 137.5,31C 137.366,34.2412 136.366,37.0745 134.5,39.5 Z"/></g>
<g><path style="opacity:1" fill="#dde2fc" d="M 87.5,30.5 C 87.6621,28.4727 87.4955,26.4727 87,24.5C 81.1186,22.275 76.2853,23.6084 72.5,28.5C 73.1272,29.4168 73.4606,30.4168 73.5,31.5C 69.3516,26.8276 69.6849,22.3276 74.5,18C 85.3251,15.66 89.6584,19.8267 87.5,30.5 Z"/></g>
<g><path style="opacity:1" fill="#6f9df4" d="M 95.5,29.5 C 95.1658,26.812 95.8325,24.4786 97.5,22.5C 100.102,21.0313 102.269,21.698 104,24.5C 104.667,26.1667 104.667,27.8333 104,29.5C 100.947,41.4547 98.1132,41.4547 95.5,29.5 Z"/></g>
<g><path style="opacity:0.361" fill="#c6dafb" d="M 97.5,22.5 C 95.8325,24.4786 95.1658,26.812 95.5,29.5C 94.3775,27.7116 94.2109,25.7116 95,23.5C 95.6708,22.7476 96.5041,22.4142 97.5,22.5 Z"/></g>
<g><path style="opacity:1" fill="#c5d4fb" d="M 87.5,30.5 C 86.2747,33.6166 83.9414,34.9499 80.5,34.5C 77.4995,34.8284 75.1661,33.8284 73.5,31.5C 73.4606,30.4168 73.1272,29.4168 72.5,28.5C 76.2853,23.6084 81.1186,22.275 87,24.5C 87.4955,26.4727 87.6621,28.4727 87.5,30.5 Z"/></g>
<g><path style="opacity:0.998" fill="#e5e6fc" d="M 155.5,28.5 C 162.878,30.1675 164.211,34.0008 159.5,40C 152.495,41.3236 149.995,38.4902 152,31.5C 153.145,30.3636 154.312,29.3636 155.5,28.5 Z"/></g>
<g><path style="opacity:1" fill="#c1d0f9" d="M 134.5,39.5 C 129.375,46.7514 127.042,54.7514 127.5,63.5C 127.5,58.5 127.5,53.5 127.5,48.5C 125.856,48.2865 124.356,48.6198 123,49.5C 122.199,55.165 121.866,60.8317 122,66.5C 122.986,65.8288 124.153,65.8288 125.5,66.5C 124.856,69.144 123.189,70.8106 120.5,71.5C 118.516,71.516 117.516,70.516 117.5,68.5C 121.267,58.8181 121.433,49.8181 118,41.5C 116.755,41.4615 115.422,41.7948 114,42.5C 112.97,42.8361 112.47,43.5028 112.5,44.5C 111.167,43.8333 110.167,42.8333 109.5,41.5C 110.045,38.1869 110.545,34.8536 111,31.5C 111.718,30.5494 112.551,30.3828 113.5,31C 115.487,33.1398 116.82,35.6398 117.5,38.5C 117.833,38.3333 118.167,38.1667 118.5,38C 119.939,34.754 121.272,31.4207 122.5,28C 122.167,27.6667 121.833,27.3333 121.5,27C 123.682,23.9911 126.516,21.8244 130,20.5C 131.775,21.2703 133.275,22.437 134.5,24C 133.833,24.3333 133.167,24.6667 132.5,25C 133.925,26.7141 133.592,28.0475 131.5,29C 135.462,30.2108 136.129,32.2108 133.5,35C 134.38,36.3561 134.714,37.8561 134.5,39.5 Z"/></g>
<g><path style="opacity:0.974" fill="#e5e6f9" d="M 55.5,42.5 C 60.712,42.2273 63.5453,44.5606 64,49.5C 58.9844,52.9132 55.4844,51.7465 53.5,46C 53.9783,44.6974 54.645,43.5307 55.5,42.5 Z"/></g>
<g><path style="opacity:1" fill="#45689f" d="M 107.5,40.5 C 107.842,41.3382 108.508,41.6716 109.5,41.5C 110.167,42.8333 111.167,43.8333 112.5,44.5C 113.441,46.0495 114.107,47.7162 114.5,49.5C 114.631,50.2389 114.464,50.9056 114,51.5C 112.791,49.8165 111.291,48.4832 109.5,47.5C 109.5,46.5 109.5,45.5 109.5,44.5C 106.187,43.9552 102.854,43.4552 99.5,43C 98.944,42.6174 98.6107,42.1174 98.5,41.5C 98.5,41.1667 98.5,40.8333 98.5,40.5C 101.396,39.2248 104.396,39.2248 107.5,40.5 Z"/></g>
<g><path style="opacity:1" fill="#78a5f0" d="M 141.5,57.5 C 142.598,56.603 142.598,55.7697 141.5,55C 139.302,54.6271 137.135,54.1271 135,53.5C 133.989,54.0556 133.156,54.7222 132.5,55.5C 131.522,48.0959 134.522,43.4292 141.5,41.5C 145.748,42.1474 147.748,44.6474 147.5,49C 147.616,51.5443 146.783,53.711 145,55.5C 144.184,56.8228 143.017,57.4894 141.5,57.5 Z"/></g>
<g><path style="opacity:1" fill="#4e84d2" d="M 98.5,41.5 C 98.6107,42.1174 98.944,42.6174 99.5,43C 102.854,43.4552 106.187,43.9552 109.5,44.5C 109.5,45.5 109.5,46.5 109.5,47.5C 109.064,54.3173 109.731,60.984 111.5,67.5C 110.614,74.4567 110.28,81.4567 110.5,88.5C 109.399,89.5983 108.066,89.765 106.5,89C 102.601,84.6977 99.6011,79.8643 97.5,74.5C 100.58,74.7477 103.58,75.4144 106.5,76.5C 107.167,76.1667 107.833,75.8333 108.5,75.5C 107.721,70.8867 107.221,66.22 107,61.5C 104.866,59.1973 103.366,56.5307 102.5,53.5C 103.609,51.7859 102.942,51.1192 100.5,51.5C 100.657,50.1266 100.49,48.7932 100,47.5C 95.0142,46.1235 94.5142,44.1235 98.5,41.5 Z"/></g>
<g><path style="opacity:1" fill="#7aabf2" d="M 72.5,47.5 C 79.4863,47.331 81.153,50.1643 77.5,56C 70.4159,56.475 68.7492,53.6417 72.5,47.5 Z"/></g>
<g><path style="opacity:1" fill="#3870be" d="M 109.5,47.5 C 111.291,48.4832 112.791,49.8165 114,51.5C 114.464,50.9056 114.631,50.2389 114.5,49.5C 116.257,55.8988 115.257,61.8988 111.5,67.5C 109.731,60.984 109.064,54.3173 109.5,47.5 Z"/></g>
<g><path style="opacity:0.86" fill="#abc5f8" d="M 127.5,63.5 C 127.573,65.0269 126.906,66.0269 125.5,66.5C 124.153,65.8288 122.986,65.8288 122,66.5C 121.866,60.8317 122.199,55.165 123,49.5C 124.356,48.6198 125.856,48.2865 127.5,48.5C 127.5,53.5 127.5,58.5 127.5,63.5 Z"/></g>
<g><path style="opacity:0.796" fill="#939dab" d="M 170.5,57.5 C 169.167,57.5 167.833,57.5 166.5,57.5C 165.5,57.5 164.5,57.5 163.5,57.5C 163.167,57.5 162.833,57.5 162.5,57.5C 165.044,55.2856 167.711,55.2856 170.5,57.5 Z"/></g>
<g><path style="opacity:1" fill="#6288d5" d="M 141.5,57.5 C 138.954,59.9248 137.454,62.9248 137,66.5C 134.978,67.9909 133.312,67.6576 132,65.5C 131.253,62.0764 131.42,58.7431 132.5,55.5C 133.156,54.7222 133.989,54.0556 135,53.5C 137.135,54.1271 139.302,54.6271 141.5,55C 142.598,55.7697 142.598,56.603 141.5,57.5 Z"/></g>
<g><path style="opacity:1" fill="#7babf5" d="M 92.5,46.5 C 90.7371,49.7118 91.4037,52.2118 94.5,54C 91.8333,54.6667 91.8333,55.3333 94.5,56C 94.0426,56.414 93.7093,56.914 93.5,57.5C 94.2624,57.9106 95.2624,58.0773 96.5,58C 95.816,59.8271 96.4827,61.3271 98.5,62.5C 98.9059,61.4425 98.9059,60.1092 98.5,58.5C 101.5,58.8333 103.167,60.5 103.5,63.5C 100.366,64.2785 97.6989,65.9452 95.5,68.5C 96.9079,69.2432 98.2412,70.0766 99.5,71C 98.0267,71.7096 97.3601,72.8762 97.5,74.5C 92.1194,68.1924 89.6194,60.8591 90,52.5C 90.2401,50.1484 91.0735,48.1484 92.5,46.5 Z"/></g>
<g><path style="opacity:0.522" fill="#abb1ba" d="M 162.5,57.5 C 161.5,59.1667 160.167,60.5 158.5,61.5C 158.833,59.1667 160.167,57.8333 162.5,57.5 Z"/></g>
<g><path style="opacity:1" fill="#203d66" d="M 163.5,57.5 C 164.5,57.5 165.5,57.5 166.5,57.5C 165.236,62.3971 165.902,67.0637 168.5,71.5C 167.833,71.5 167.167,71.5 166.5,71.5C 165.297,69.6045 164.131,67.6045 163,65.5C 162.398,62.7795 162.565,60.1128 163.5,57.5 Z"/></g>
<g><path style="opacity:1" fill="#3e6097" d="M 166.5,57.5 C 167.833,57.5 169.167,57.5 170.5,57.5C 174.546,60.6628 175.213,64.3295 172.5,68.5C 171.167,69.1667 170.167,70.1667 169.5,71.5C 169.167,71.5 168.833,71.5 168.5,71.5C 165.902,67.0637 165.236,62.3971 166.5,57.5 Z"/></g>
<g><path style="opacity:1" fill="#2c3647" d="M 162.5,57.5 C 162.833,57.5 163.167,57.5 163.5,57.5C 162.565,60.1128 162.398,62.7795 163,65.5C 164.131,67.6045 165.297,69.6045 166.5,71.5C 165.167,71.5 163.833,71.5 162.5,71.5C 161.508,71.6716 160.842,71.3382 160.5,70.5C 160.573,68.9731 159.906,67.9731 158.5,67.5C 157.167,65.5 157.167,63.5 158.5,61.5C 160.167,60.5 161.5,59.1667 162.5,57.5 Z"/></g>
<g><path style="opacity:1" fill="#bbcffa" d="M 54.5,76.5 C 51.7233,73.0222 50.8899,69.0222 52,64.5C 62.2309,58.9411 68.8976,61.9411 72,73.5C 72.1998,80.2948 73.0332,86.9615 74.5,93.5C 72.3453,93.628 70.3453,93.128 68.5,92C 63.917,86.5925 59.2504,81.4258 54.5,76.5 Z"/></g>
<g><path style="opacity:1" fill="#98bcfb" d="M 54.5,76.5 C 53.8099,72.5104 53.6432,68.5104 54,64.5C 54.7247,63.9415 55.5581,63.6082 56.5,63.5C 59.3705,65.0596 61.7039,67.2263 63.5,70C 62.0821,73.0008 61.2488,76.1675 61,79.5C 58.6252,78.871 56.4586,77.871 54.5,76.5 Z"/></g>
<g><path style="opacity:0.027" fill="#d1d4d8" d="M 158.5,67.5 C 159.906,67.9731 160.573,68.9731 160.5,70.5C 159.094,70.0269 158.427,69.0269 158.5,67.5 Z"/></g>
<g><path style="opacity:0.02" fill="#d4dbe8" d="M 172.5,68.5 C 172.5,70.5 171.5,71.5 169.5,71.5C 170.167,70.1667 171.167,69.1667 172.5,68.5 Z"/></g>
<g><path style="opacity:0.608" fill="#b1b9c5" d="M 162.5,71.5 C 163.833,71.5 165.167,71.5 166.5,71.5C 167.167,71.5 167.833,71.5 168.5,71.5C 168.833,71.5 169.167,71.5 169.5,71.5C 167.167,74.1667 164.833,74.1667 162.5,71.5 Z"/></g>
<g><path style="opacity:1" fill="#5996ec" d="M 98.5,40.5 C 98.5,40.8333 98.5,41.1667 98.5,41.5C 94.5142,44.1235 95.0142,46.1235 100,47.5C 100.49,48.7932 100.657,50.1266 100.5,51.5C 102.942,51.1192 103.609,51.7859 102.5,53.5C 103.366,56.5307 104.866,59.1973 107,61.5C 107.221,66.22 107.721,70.8867 108.5,75.5C 107.833,75.8333 107.167,76.1667 106.5,76.5C 103.58,75.4144 100.58,74.7477 97.5,74.5C 97.3601,72.8762 98.0267,71.7096 99.5,71C 98.2412,70.0766 96.9079,69.2432 95.5,68.5C 97.6989,65.9452 100.366,64.2785 103.5,63.5C 103.167,60.5 101.5,58.8333 98.5,58.5C 98.9059,60.1092 98.9059,61.4425 98.5,62.5C 96.4827,61.3271 95.816,59.8271 96.5,58C 95.2624,58.0773 94.2624,57.9106 93.5,57.5C 93.7093,56.914 94.0426,56.414 94.5,56C 91.8333,55.3333 91.8333,54.6667 94.5,54C 91.4037,52.2118 90.7371,49.7118 92.5,46.5C 93.5,43.5 95.5,41.5 98.5,40.5 Z"/></g>
<g><path style="opacity:1" fill="#d0d9f8" d="M 120.5,71.5 C 116.364,76.7842 113.03,82.4509 110.5,88.5C 110.28,81.4567 110.614,74.4567 111.5,67.5C 115.257,61.8988 116.257,55.8988 114.5,49.5C 114.107,47.7162 113.441,46.0495 112.5,44.5C 112.47,43.5028 112.97,42.8361 114,42.5C 115.422,41.7948 116.755,41.4615 118,41.5C 121.433,49.8181 121.267,58.8181 117.5,68.5C 117.516,70.516 118.516,71.516 120.5,71.5 Z"/></g>
<g><path style="opacity:0.757" fill="#8f8cb6" d="M 83.5,78.5 C 82.5,80.1667 81.1667,81.5 79.5,82.5C 79.8333,80.1667 81.1667,78.8333 83.5,78.5 Z"/></g>
<g><path style="opacity:1" fill="#392f79" d="M 89.5,78.5 C 91.0461,80.8825 91.7128,83.5491 91.5,86.5C 89.7968,91.1867 86.4634,93.0201 81.5,92C 80.6195,91.2917 79.9528,90.4584 79.5,89.5C 79.5,87.1667 79.5,84.8333 79.5,82.5C 81.1667,81.5 82.5,80.1667 83.5,78.5C 85.5,77.1667 87.5,77.1667 89.5,78.5 Z"/></g>
<g><path style="opacity:0.318" fill="#b5b2ce" d="M 89.5,78.5 C 92.5172,80.6154 93.1839,83.282 91.5,86.5C 91.7128,83.5491 91.0461,80.8825 89.5,78.5 Z"/></g>
<g><path style="opacity:0.812" fill="#9793ba" d="M 79.5,82.5 C 79.5,84.8333 79.5,87.1667 79.5,89.5C 77.1093,87.2358 77.1093,84.9024 79.5,82.5 Z"/></g>
<g><path style="opacity:0.541" fill="#b0b7d5" d="M 139.5,83.5 C 140.765,84.5145 141.431,86.0145 141.5,88C 141.492,89.7067 141.158,91.2067 140.5,92.5C 140.736,89.3915 140.403,86.3915 139.5,83.5 Z"/></g>
<g><path style="opacity:1" fill="#364991" d="M 139.5,83.5 C 140.403,86.3915 140.736,89.3915 140.5,92.5C 140.167,93.5 139.5,94.1667 138.5,94.5C 137.5,94.8333 136.833,95.5 136.5,96.5C 134.516,99.1639 131.849,100.831 128.5,101.5C 127.768,100.192 126.934,98.8584 126,97.5C 125.383,98.4491 125.549,99.2825 126.5,100C 125.5,100.667 124.5,100.667 123.5,100C 123.833,99.6667 124.167,99.3333 124.5,99C 121.646,96.7339 119.813,97.2339 119,100.5C 118.31,101.738 117.81,101.738 117.5,100.5C 118.167,97.1667 118.833,93.8333 119.5,90.5C 124.404,82.3537 131.071,80.0203 139.5,83.5 Z"/></g>
<g><path style="opacity:1" fill="#d6ddfc" d="M 102.5,114.5 C 102.586,113.504 102.252,112.671 101.5,112C 105.415,106.826 105.082,106.493 100.5,111C 99.0563,111.781 97.723,111.614 96.5,110.5C 97.6332,105.169 97.4665,99.8355 96,94.5C 95.2917,95.3805 94.4584,96.0472 93.5,96.5C 96.0641,90.9356 100.397,89.1023 106.5,91C 109.975,94.0965 111.475,97.9298 111,102.5C 109.11,107.215 106.276,111.215 102.5,114.5 Z"/></g>
<g><path style="opacity:1" fill="#7d7ead" d="M 119.5,90.5 C 118.833,93.8333 118.167,97.1667 117.5,100.5C 117.167,100.5 116.833,100.5 116.5,100.5C 116.32,96.7144 117.32,93.381 119.5,90.5 Z"/></g>
<g><path style="opacity:0.224" fill="#b1afc7" d="M 175.5,93.5 C 178.64,92.3592 181.973,92.1925 185.5,93C 186.942,93.3768 187.942,94.2101 188.5,95.5C 187.391,95.4431 186.391,95.1098 185.5,94.5C 182.272,93.5863 178.939,93.2529 175.5,93.5 Z"/></g>
<g><path style="opacity:0.016" fill="#c2c7dd" d="M 138.5,94.5 C 138.5,95.8333 137.833,96.5 136.5,96.5C 136.833,95.5 137.5,94.8333 138.5,94.5 Z"/></g>
<g><path style="opacity:1" fill="#504982" d="M 185.5,94.5 C 186.391,95.1098 187.391,95.4431 188.5,95.5C 190.754,96.1237 192.421,97.457 193.5,99.5C 193.5,99.8333 193.5,100.167 193.5,100.5C 192.312,99.3157 191.145,99.3157 190,100.5C 189.383,99.5509 189.549,98.7175 190.5,98C 189.906,97.5357 189.239,97.369 188.5,97.5C 187.1,96.8999 186.1,95.8999 185.5,94.5 Z"/></g>
<g><path style="opacity:0.78" fill="#9c99be" d="M 78.5,97.5 C 76.5,97.5 74.5,97.5 72.5,97.5C 74.5,94.8333 76.5,94.8333 78.5,97.5 Z"/></g>
<g><path style="opacity:1" fill="#362d78" d="M 72.5,97.5 C 74.5,97.5 76.5,97.5 78.5,97.5C 79.4916,97.3284 80.1583,97.6618 80.5,98.5C 80.427,100.027 81.0937,101.027 82.5,101.5C 82.8333,104.167 83.1667,106.833 83.5,109.5C 82.5,109.5 81.5,109.5 80.5,109.5C 78.8333,108.5 77.5,107.167 76.5,105.5C 75.4863,104.326 74.153,103.66 72.5,103.5C 71.5222,103.189 70.8555,102.522 70.5,101.5C 70.9943,99.9745 71.661,98.6412 72.5,97.5 Z"/></g>
<g><path style="opacity:1" fill="#41497e" d="M 128.5,101.5 C 126.167,104.167 123.833,106.833 121.5,109.5C 122.005,106.159 122.172,102.826 122,99.5C 120.615,100.551 119.615,101.884 119,103.5C 118.329,102.748 117.496,102.414 116.5,102.5C 116.5,101.833 116.5,101.167 116.5,100.5C 116.833,100.5 117.167,100.5 117.5,100.5C 117.81,101.738 118.31,101.738 119,100.5C 119.813,97.2339 121.646,96.7339 124.5,99C 124.167,99.3333 123.833,99.6667 123.5,100C 124.5,100.667 125.5,100.667 126.5,100C 125.549,99.2825 125.383,98.4491 126,97.5C 126.934,98.8584 127.768,100.192 128.5,101.5 Z"/></g>
<g><path style="opacity:0.788" fill="#9491b7" d="M 171.5,95.5 C 170.167,97.5 168.5,99.1667 166.5,100.5C 166.167,100.5 165.833,100.5 165.5,100.5C 166.911,98.086 168.911,96.4194 171.5,95.5 Z"/></g>
<g><path style="opacity:1" fill="#25226e" d="M 175.5,93.5 C 178.939,93.2529 182.272,93.5863 185.5,94.5C 186.1,95.8999 187.1,96.8999 188.5,97.5C 187.666,102.04 189.332,105.873 193.5,109C 192.892,109.87 192.059,110.37 191,110.5C 188.287,109.991 185.62,109.657 183,109.5C 182.075,110.047 181.242,110.713 180.5,111.5C 181.506,112.396 181.506,113.062 180.5,113.5C 178.533,112.047 176.367,111.047 174,110.5C 173.342,108.892 173.842,107.725 175.5,107C 173.697,106.363 172.364,105.197 171.5,103.5C 170.749,104.376 170.249,105.376 170,106.5C 169,105.167 168,105.167 167,106.5C 166.544,105.256 167.044,104.423 168.5,104C 167.695,102.887 167.028,101.721 166.5,100.5C 168.5,99.1667 170.167,97.5 171.5,95.5C 172.514,94.3263 173.847,93.6596 175.5,93.5 Z"/></g>
<g><path style="opacity:0.38" fill="#b1b0cd" d="M 80.5,98.5 C 81.9063,98.9731 82.573,99.9731 82.5,101.5C 81.0937,101.027 80.427,100.027 80.5,98.5 Z"/></g>
<g><path style="opacity:0.22" fill="#c1c1d0" d="M 193.5,100.5 C 193.5,100.167 193.5,99.8333 193.5,99.5C 195.819,99.9925 197.819,100.992 199.5,102.5C 197.297,102.396 195.297,101.73 193.5,100.5 Z"/></g>
<g><path style="opacity:0.553" fill="#a7a5c6" d="M 165.5,100.5 C 164.738,102.262 163.404,103.262 161.5,103.5C 162.262,101.738 163.596,100.738 165.5,100.5 Z"/></g>
<g><path style="opacity:1" fill="#2d3270" d="M 121.5,109.5 C 121.262,111.404 120.262,112.738 118.5,113.5C 117.167,113.5 115.833,113.5 114.5,113.5C 114.5,111.833 114.5,110.167 114.5,108.5C 115.738,106.786 116.405,104.786 116.5,102.5C 117.496,102.414 118.329,102.748 119,103.5C 119.615,101.884 120.615,100.551 122,99.5C 122.172,102.826 122.005,106.159 121.5,109.5 Z"/></g>
<g><path style="opacity:0.325" fill="#b6b5cb" d="M 199.5,102.5 C 202.727,102.676 205.727,103.343 208.5,104.5C 205.171,104.785 202.171,104.118 199.5,102.5 Z"/></g>
<g><path style="opacity:0.184" fill="#b5b3ce" d="M 72.5,103.5 C 74.153,103.66 75.4863,104.326 76.5,105.5C 74.6203,105.771 73.287,105.104 72.5,103.5 Z"/></g>
<g><path style="opacity:0.918" fill="#837fad" d="M 82.5,101.5 C 84.7546,104.707 84.9212,108.04 83,111.5C 82.0053,110.934 81.172,110.267 80.5,109.5C 81.5,109.5 82.5,109.5 83.5,109.5C 83.1667,106.833 82.8333,104.167 82.5,101.5 Z"/></g>
<g><path style="opacity:0.592" fill="#a9a7c7" d="M 161.5,103.5 C 161.027,104.906 160.027,105.573 158.5,105.5C 158.973,104.094 159.973,103.427 161.5,103.5 Z"/></g>
<g><path style="opacity:1" fill="#c5d4fb" d="M 102.5,114.5 C 99.6878,117.796 97.6878,121.463 96.5,125.5C 94.2453,128.258 92.4119,127.924 91,124.5C 89.6746,119.599 89.1746,114.599 89.5,109.5C 89.2503,104.588 90.5837,100.255 93.5,96.5C 94.4584,96.0472 95.2917,95.3805 96,94.5C 97.4665,99.8355 97.6332,105.169 96.5,110.5C 97.723,111.614 99.0563,111.781 100.5,111C 105.082,106.493 105.415,106.826 101.5,112C 102.252,112.671 102.586,113.504 102.5,114.5 Z"/></g>
<g><path style="opacity:0.961" fill="#8c87b0" d="M 157.5,105.5 C 154.375,106.479 151.042,106.813 147.5,106.5C 145.565,107.15 143.565,107.483 141.5,107.5C 144.356,105.923 147.522,104.923 151,104.5C 153.099,105.287 155.266,105.62 157.5,105.5 Z"/></g>
<g><path style="opacity:0.012" fill="#cac9dc" d="M 213.5,106.5 C 214.833,106.5 215.5,107.167 215.5,108.5C 214.5,108.167 213.833,107.5 213.5,106.5 Z"/></g>
<g><path style="opacity:0.502" fill="#a1a5c0" d="M 116.5,100.5 C 116.5,101.167 116.5,101.833 116.5,102.5C 116.405,104.786 115.738,106.786 114.5,108.5C 114.565,105.572 115.232,102.905 116.5,100.5 Z"/></g>
<g><path style="opacity:0.024" fill="#e4e5ed" d="M 66.5,112.5 C 65.209,112.263 64.209,112.596 63.5,113.5C 62.8333,113.5 62.1667,113.5 61.5,113.5C 62.4057,112.035 63.739,111.035 65.5,110.5C 66.2975,110.957 66.6309,111.624 66.5,112.5 Z"/></g>
<g><path style="opacity:0.973" fill="#726d97" d="M 139.5,108.5 C 138.415,110.587 136.749,111.92 134.5,112.5C 135.585,110.413 137.251,109.08 139.5,108.5 Z"/></g>
<g><path style="opacity:1" fill="#44427f" d="M 213.5,117.5 C 210.297,116.317 207.13,114.984 204,113.5C 203.228,113.645 202.561,113.978 202,114.5C 196.872,111.868 191.705,112.035 186.5,115C 185.773,116.399 185.273,117.899 185,119.5C 182.029,118.201 179.195,118.201 176.5,119.5C 180.771,117.027 185.104,114.527 189.5,112C 195.5,111.333 201.5,111.333 207.5,112C 209.342,114.074 211.342,115.907 213.5,117.5 Z"/></g>
<g><path style="opacity:0.373" fill="#b2b2cc" d="M 114.5,108.5 C 114.5,110.167 114.5,111.833 114.5,113.5C 115.833,113.5 117.167,113.5 118.5,113.5C 117.081,114.451 115.415,114.784 113.5,114.5C 113.205,112.265 113.539,110.265 114.5,108.5 Z"/></g>
<g><path style="opacity:1" fill="#625b97" d="M 215.5,108.5 C 217.614,111.07 219.947,113.403 222.5,115.5C 221.127,115.343 219.793,115.51 218.5,116C 220.932,117.087 220.598,117.587 217.5,117.5C 216.948,115.669 216.948,114.003 217.5,112.5C 216.37,111.378 215.703,110.044 215.5,108.5 Z"/></g>
<g><path style="opacity:1" fill="#5591f3" d="M 85.5,121.5 C 85.162,124.157 85.8287,126.49 87.5,128.5C 87,128.833 86.5,129.167 86,129.5C 83.6108,127.601 81.1108,125.934 78.5,124.5C 77.5,124.167 76.8333,123.5 76.5,122.5C 76.5,120.167 76.5,117.833 76.5,115.5C 82.3503,112.281 85.3503,114.281 85.5,121.5 Z"/></g>
<g><path style="opacity:0.167" fill="#eef2fe" d="M 89.5,109.5 C 89.1746,114.599 89.6746,119.599 91,124.5C 92.4119,127.924 94.2453,128.258 96.5,125.5C 95.2923,130.482 93.1256,130.816 90,126.5C 88.2969,120.739 88.1302,115.072 89.5,109.5 Z"/></g>
<g><path style="opacity:1" fill="#514f8b" d="M 147.5,114.5 C 145.856,115.366 144.189,115.866 142.5,116C 144.063,114.053 146.063,112.886 148.5,112.5C 152.905,111.008 157.238,111.175 161.5,113C 159.366,113.127 157.199,112.961 155,112.5C 152.24,112.646 149.74,113.313 147.5,114.5 Z"/></g>
<g><path style="opacity:1" fill="#2c2972" d="M 188.5,97.5 C 189.239,97.369 189.906,97.5357 190.5,98C 189.549,98.7175 189.383,99.5509 190,100.5C 191.145,99.3157 192.312,99.3157 193.5,100.5C 195.297,101.73 197.297,102.396 199.5,102.5C 202.171,104.118 205.171,104.785 208.5,104.5C 210.553,104.402 212.22,105.069 213.5,106.5C 213.833,107.5 214.5,108.167 215.5,108.5C 215.703,110.044 216.37,111.378 217.5,112.5C 216.948,114.003 216.948,115.669 217.5,117.5C 216.167,117.5 214.833,117.5 213.5,117.5C 211.342,115.907 209.342,114.074 207.5,112C 201.5,111.333 195.5,111.333 189.5,112C 185.104,114.527 180.771,117.027 176.5,119.5C 171.676,119.992 167.01,120.659 162.5,121.5C 160.974,122.105 159.974,123.271 159.5,125C 156.36,124.418 153.36,124.751 150.5,126C 148.981,124.649 147.648,123.149 146.5,121.5C 148.553,119.271 148.886,116.938 147.5,114.5C 149.74,113.313 152.24,112.646 155,112.5C 157.199,112.961 159.366,113.127 161.5,113C 157.238,111.175 152.905,111.008 148.5,112.5C 147.77,110.955 146.437,110.122 144.5,110C 145.448,109.517 146.448,109.351 147.5,109.5C 147.5,108.5 147.5,107.5 147.5,106.5C 151.042,106.813 154.375,106.479 157.5,105.5C 157.833,105.5 158.167,105.5 158.5,105.5C 160.027,105.573 161.027,104.906 161.5,103.5C 163.404,103.262 164.738,102.262 165.5,100.5C 165.833,100.5 166.167,100.5 166.5,100.5C 167.028,101.721 167.695,102.887 168.5,104C 167.044,104.423 166.544,105.256 167,106.5C 168,105.167 169,105.167 170,106.5C 170.249,105.376 170.749,104.376 171.5,103.5C 172.364,105.197 173.697,106.363 175.5,107C 173.842,107.725 173.342,108.892 174,110.5C 176.367,111.047 178.533,112.047 180.5,113.5C 181.506,113.062 181.506,112.396 180.5,111.5C 181.242,110.713 182.075,110.047 183,109.5C 185.62,109.657 188.287,109.991 191,110.5C 192.059,110.37 192.892,109.87 193.5,109C 189.332,105.873 187.666,102.04 188.5,97.5 Z"/></g>
<g><path style="opacity:1" fill="#6167aa" d="M 60.5,115.5 C 63.1237,116.494 65.7903,117.494 68.5,118.5C 68.5,119.833 67.8333,120.5 66.5,120.5C 64.4727,120.662 62.4727,120.495 60.5,120C 59.1991,118.384 59.1991,116.884 60.5,115.5 Z"/></g>
<g><path style="opacity:1" fill="#383885" d="M 61.5,113.5 C 62.1667,113.5 62.8333,113.5 63.5,113.5C 67.5,112.833 69.1667,114.5 68.5,118.5C 65.7903,117.494 63.1237,116.494 60.5,115.5C 60.8333,114.833 61.1667,114.167 61.5,113.5 Z"/></g>
<g><path style="opacity:0.608" fill="#8d8db9" d="M 63.5,113.5 C 64.209,112.596 65.209,112.263 66.5,112.5C 67.4959,112.414 68.3292,112.748 69,113.5C 69.7796,115.387 69.6129,117.054 68.5,118.5C 69.1667,114.5 67.5,112.833 63.5,113.5 Z"/></g>
<g><path style="opacity:0.855" fill="#77779d" d="M 134.5,112.5 C 134.08,114.094 133.414,115.594 132.5,117C 132.57,117.765 132.903,118.265 133.5,118.5C 133.5,118.833 133.5,119.167 133.5,119.5C 132.167,119.5 131.5,118.833 131.5,117.5C 131.273,115.067 132.273,113.401 134.5,112.5 Z"/></g>
<g><path style="opacity:0.765" fill="#b9d1fa" d="M 76.5,115.5 C 76.5,117.833 76.5,120.167 76.5,122.5C 75.7515,121.469 75.0848,120.302 74.5,119C 75.0848,117.698 75.7515,116.531 76.5,115.5 Z"/></g>
<g><path style="opacity:1" fill="#a8c1f5" d="M 133.5,119.5 C 133.5,119.167 133.5,118.833 133.5,118.5C 136.119,118.232 138.619,118.565 141,119.5C 141.667,120.833 141.667,122.167 141,123.5C 139.117,124.653 138.284,126.319 138.5,128.5C 137.589,126.084 136.589,123.584 135.5,121C 135.164,119.97 134.497,119.47 133.5,119.5 Z"/></g>
<g><path style="opacity:1" fill="#302d6c" d="M 213.5,117.5 C 214.833,117.5 216.167,117.5 217.5,117.5C 220.598,117.587 220.932,117.087 218.5,116C 219.793,115.51 221.127,115.343 222.5,115.5C 224.819,115.992 226.819,116.992 228.5,118.5C 229.473,120.068 229.64,121.735 229,123.5C 228.667,123.167 228.333,122.833 228,122.5C 227.292,123.381 226.458,124.047 225.5,124.5C 224.033,124.106 222.533,123.773 221,123.5C 219.301,123.387 218.134,124.053 217.5,125.5C 216.4,126.558 215.066,127.392 213.5,128C 207.984,128.817 202.65,128.651 197.5,127.5C 194.988,126.133 192.655,126.466 190.5,128.5C 190.158,129.338 189.492,129.672 188.5,129.5C 187.5,129.5 186.5,129.5 185.5,129.5C 183.179,129.229 181.179,129.896 179.5,131.5C 177.998,130.917 176.665,130.084 175.5,129C 177.996,127.92 180.33,126.586 182.5,125C 180.384,125.282 178.217,125.782 176,126.5C 173.833,126.331 172.666,125.164 172.5,123C 173.686,121.588 175.019,120.421 176.5,119.5C 179.195,118.201 182.029,118.201 185,119.5C 185.273,117.899 185.773,116.399 186.5,115C 191.705,112.035 196.872,111.868 202,114.5C 202.561,113.978 203.228,113.645 204,113.5C 207.13,114.984 210.297,116.317 213.5,117.5 Z"/></g>
<g><path style="opacity:0.573" fill="#c8cce3" d="M 61.5,113.5 C 61.1667,114.167 60.8333,114.833 60.5,115.5C 59.1991,116.884 59.1991,118.384 60.5,120C 62.4727,120.495 64.4727,120.662 66.5,120.5C 64.123,123.124 61.623,123.124 59,120.5C 58.3333,118.5 58.3333,116.5 59,114.5C 59.6708,113.748 60.5041,113.414 61.5,113.5 Z"/></g>
<g><path style="opacity:0.008" fill="#cfcee0" d="M 231.5,120.5 C 232.833,120.5 233.5,121.167 233.5,122.5C 232.5,122.167 231.833,121.5 231.5,120.5 Z"/></g>
<g><path style="opacity:1" fill="#6f9ef4" d="M 100.5,132.5 C 100.833,129.167 101.167,125.833 101.5,122.5C 105.023,119.554 107.689,120.387 109.5,125C 107.5,127.667 105.5,130.333 103.5,133C 102.251,133.74 101.251,133.573 100.5,132.5 Z"/></g>
<g><path style="opacity:1" fill="#565589" d="M 189.5,119.5 C 191.527,119.338 193.527,119.505 195.5,120C 191.653,120.782 187.986,121.782 184.5,123C 186.233,121.811 187.9,120.644 189.5,119.5 Z"/></g>
<g><path style="opacity:1" fill="#50498a" d="M 228.5,118.5 C 230.027,118.427 231.027,119.094 231.5,120.5C 231.833,121.5 232.5,122.167 233.5,122.5C 233.833,122.5 234.167,122.5 234.5,122.5C 234.5,124.167 234.5,125.833 234.5,127.5C 233.167,127.5 231.833,127.5 230.5,127.5C 228.716,127.107 227.05,126.441 225.5,125.5C 225.5,125.167 225.5,124.833 225.5,124.5C 226.458,124.047 227.292,123.381 228,122.5C 228.333,122.833 228.667,123.167 229,123.5C 229.64,121.735 229.473,120.068 228.5,118.5 Z"/></g>
<g><path style="opacity:0.69" fill="#a2a0b9" d="M 225.5,124.5 C 225.5,124.833 225.5,125.167 225.5,125.5C 222.728,124.629 220.062,124.629 217.5,125.5C 218.134,124.053 219.301,123.387 221,123.5C 222.533,123.773 224.033,124.106 225.5,124.5 Z"/></g>
<g><path style="opacity:0.851" fill="#b0caf9" d="M 85.5,121.5 C 86.3425,123.823 87.3425,126.157 88.5,128.5C 88.5472,130 87.8805,131 86.5,131.5C 83.1956,129.86 80.529,127.527 78.5,124.5C 81.1108,125.934 83.6108,127.601 86,129.5C 86.5,129.167 87,128.833 87.5,128.5C 85.8287,126.49 85.162,124.157 85.5,121.5 Z"/></g>
<g><path style="opacity:1" fill="#e3e5fc" d="M 131.5,117.5 C 131.5,118.833 132.167,119.5 133.5,119.5C 134.497,119.47 135.164,119.97 135.5,121C 136.589,123.584 137.589,126.084 138.5,128.5C 142.833,129.167 147.167,129.833 151.5,130.5C 144.049,130.471 136.715,130.971 129.5,132C 126.52,126.672 127.187,121.839 131.5,117.5 Z"/></g>
<g><path style="opacity:1" fill="#272667" d="M 147.5,106.5 C 147.5,107.5 147.5,108.5 147.5,109.5C 146.448,109.351 145.448,109.517 144.5,110C 146.437,110.122 147.77,110.955 148.5,112.5C 146.063,112.886 144.063,114.053 142.5,116C 144.189,115.866 145.856,115.366 147.5,114.5C 148.886,116.938 148.553,119.271 146.5,121.5C 147.648,123.149 148.981,124.649 150.5,126C 153.36,124.751 156.36,124.418 159.5,125C 159.974,123.271 160.974,122.105 162.5,121.5C 165.482,121.963 168.482,122.296 171.5,122.5C 171.67,123.822 171.337,124.989 170.5,126C 168.153,126.334 165.819,126.167 163.5,125.5C 163.5,126.833 163.5,128.167 163.5,129.5C 159.865,130.114 156.198,130.448 152.5,130.5C 152.167,130.5 151.833,130.5 151.5,130.5C 147.167,129.833 142.833,129.167 138.5,128.5C 138.284,126.319 139.117,124.653 141,123.5C 141.667,122.167 141.667,120.833 141,119.5C 138.619,118.565 136.119,118.232 133.5,118.5C 132.903,118.265 132.57,117.765 132.5,117C 133.414,115.594 134.08,114.094 134.5,112.5C 136.749,111.92 138.415,110.587 139.5,108.5C 139.842,107.662 140.508,107.328 141.5,107.5C 143.565,107.483 145.565,107.15 147.5,106.5 Z"/></g>
<g><path style="opacity:0.478" fill="#9b9ab5" d="M 197.5,127.5 C 195.139,127.674 192.806,128.007 190.5,128.5C 192.655,126.466 194.988,126.133 197.5,127.5 Z"/></g>
<g><path style="opacity:0.78" fill="#9995bb" d="M 230.5,127.5 C 231.833,127.5 233.167,127.5 234.5,127.5C 234.5,128.167 234.5,128.833 234.5,129.5C 232.62,129.771 231.287,129.104 230.5,127.5 Z"/></g>
<g><path style="opacity:0.353" fill="#d0e0fc" d="M 101.5,122.5 C 101.167,125.833 100.833,129.167 100.5,132.5C 99.7515,131.469 99.0848,130.302 98.5,129C 99.7315,126.834 100.731,124.667 101.5,122.5 Z"/></g>
<g><path style="opacity:1" fill="#433f7b" d="M 176.5,119.5 C 175.019,120.421 173.686,121.588 172.5,123C 172.666,125.164 173.833,126.331 176,126.5C 178.217,125.782 180.384,125.282 182.5,125C 180.33,126.586 177.996,127.92 175.5,129C 176.665,130.084 177.998,130.917 179.5,131.5C 181.179,129.896 183.179,129.229 185.5,129.5C 184.833,130.167 184.167,130.833 183.5,131.5C 180.636,134.014 177.302,135.68 173.5,136.5C 173.804,135.85 174.137,135.183 174.5,134.5C 173.066,133.77 171.9,132.77 171,131.5C 170,131.833 169,132.167 168,132.5C 165.085,129.866 162.252,129.866 159.5,132.5C 160.193,133.518 160.859,134.518 161.5,135.5C 159.973,135.573 158.973,134.906 158.5,133.5C 158.027,132.094 157.027,131.427 155.5,131.5C 154.209,131.737 153.209,131.404 152.5,130.5C 156.198,130.448 159.865,130.114 163.5,129.5C 163.5,128.167 163.5,126.833 163.5,125.5C 165.819,126.167 168.153,126.334 170.5,126C 171.337,124.989 171.67,123.822 171.5,122.5C 168.482,122.296 165.482,121.963 162.5,121.5C 167.01,120.659 171.676,119.992 176.5,119.5 Z"/></g>
<g><path style="opacity:0.173" fill="#c4c4d4" d="M 185.5,129.5 C 186.5,129.5 187.5,129.5 188.5,129.5C 187.22,130.931 185.553,131.598 183.5,131.5C 184.167,130.833 184.833,130.167 185.5,129.5 Z"/></g>
<g><path style="opacity:1" fill="#3c3678" d="M 173.5,136.5 C 172.036,137.16 170.369,137.493 168.5,137.5C 165.795,137.684 163.462,137.017 161.5,135.5C 160.859,134.518 160.193,133.518 159.5,132.5C 162.252,129.866 165.085,129.866 168,132.5C 169,132.167 170,131.833 171,131.5C 171.9,132.77 173.066,133.77 174.5,134.5C 174.137,135.183 173.804,135.85 173.5,136.5 Z"/></g>
<g><path style="opacity:0.922" fill="#7e7aac" d="M 96.5,132.5 C 93.8333,132.833 91.1667,133.167 88.5,133.5C 90.993,131.416 93.6596,131.083 96.5,132.5 Z"/></g>
<g><path style="opacity:0.114" fill="#e0e0e7" d="M 155.5,131.5 C 157.027,131.427 158.027,132.094 158.5,133.5C 156.973,133.573 155.973,132.906 155.5,131.5 Z"/></g>
<g><path style="opacity:0.494" fill="#b4b8d8" d="M 96.5,132.5 C 98.2624,133.262 99.2624,134.596 99.5,136.5C 97.7376,135.738 96.7376,134.404 96.5,132.5 Z"/></g>
<g><path style="opacity:0.373" fill="#b7bbd9" d="M 99.5,136.5 C 100.906,136.973 101.573,137.973 101.5,139.5C 100.094,139.027 99.427,138.027 99.5,136.5 Z"/></g>
<g><path style="opacity:0.486" fill="#a1a2c8" d="M 101.5,139.5 C 102.906,139.973 103.573,140.973 103.5,142.5C 102.094,142.027 101.427,141.027 101.5,139.5 Z"/></g>
<g><path style="opacity:1" fill="#4e59a3" d="M 97.5,148.5 C 95.3428,146.588 93.0094,144.921 90.5,143.5C 88.7819,141.777 87.4486,139.777 86.5,137.5C 87.8333,137.5 89.1667,137.5 90.5,137.5C 90.3398,139.199 90.5065,140.866 91,142.5C 91.711,140.101 91.5443,137.768 90.5,135.5C 91,135.167 91.5,134.833 92,134.5C 96.2527,138.147 98.0861,142.814 97.5,148.5 Z"/></g>
<g><path style="opacity:0.855" fill="#9693bc" d="M 103.5,142.5 C 105.262,143.262 106.262,144.596 106.5,146.5C 104.738,145.738 103.738,144.404 103.5,142.5 Z"/></g>
<g><path style="opacity:1" fill="#5298f9" d="M 149.5,133.5 C 152.737,135.63 154.737,138.63 155.5,142.5C 155.259,144.898 155.926,146.898 157.5,148.5C 158.434,149.568 158.768,150.901 158.5,152.5C 158.821,157.695 158.487,162.695 157.5,167.5C 157.828,162.125 157.495,156.792 156.5,151.5C 155.817,151.863 155.15,152.196 154.5,152.5C 153.905,149.887 153.071,149.887 152,152.5C 150.312,151.675 150.145,150.675 151.5,149.5C 150.675,148.614 149.675,148.281 148.5,148.5C 148.5,149.5 148.5,150.5 148.5,151.5C 146.692,151.491 145.025,151.991 143.5,153C 142.504,155.281 141.17,157.114 139.5,158.5C 140.609,159.965 140.109,160.965 138,161.5C 137.577,160.044 136.744,159.544 135.5,160C 135.833,161 136.167,162 136.5,163C 134.634,161.992 133.301,162.492 132.5,164.5C 130.173,160.173 126.84,156.84 122.5,154.5C 124.788,150.544 127.788,147.211 131.5,144.5C 131.771,146.312 132.438,147.978 133.5,149.5C 137.27,149.146 140.936,147.812 144.5,145.5C 144.984,141.4 145.318,137.4 145.5,133.5C 146.833,133.5 148.167,133.5 149.5,133.5 Z"/></g>
<g><path style="opacity:1" fill="#322f7c" d="M 96.5,132.5 C 96.7376,134.404 97.7376,135.738 99.5,136.5C 99.427,138.027 100.094,139.027 101.5,139.5C 101.427,141.027 102.094,142.027 103.5,142.5C 103.738,144.404 104.738,145.738 106.5,146.5C 106.427,148.027 107.094,149.027 108.5,149.5C 108.672,150.492 108.338,151.158 107.5,151.5C 106.391,151.557 105.391,151.89 104.5,152.5C 102.167,151.167 99.8333,149.833 97.5,148.5C 98.0861,142.814 96.2527,138.147 92,134.5C 91.5,134.833 91,135.167 90.5,135.5C 91.5443,137.768 91.711,140.101 91,142.5C 90.5065,140.866 90.3398,139.199 90.5,137.5C 89.1667,137.5 87.8333,137.5 86.5,137.5C 85.0242,135.291 85.6909,133.958 88.5,133.5C 91.1667,133.167 93.8333,132.833 96.5,132.5 Z"/></g>
<g><path style="opacity:1" fill="#68a3f8" d="M 149.5,133.5 C 148.167,133.5 146.833,133.5 145.5,133.5C 145.318,137.4 144.984,141.4 144.5,145.5C 140.936,147.812 137.27,149.146 133.5,149.5C 132.438,147.978 131.771,146.312 131.5,144.5C 133.806,142.861 135.806,140.861 137.5,138.5C 140.238,135.446 143.571,133.113 147.5,131.5C 148.522,131.855 149.189,132.522 149.5,133.5 Z"/></g>
<g><path style="opacity:0.729" fill="#939cb7" d="M 137.5,138.5 C 135.806,140.861 133.806,142.861 131.5,144.5C 127.788,147.211 124.788,150.544 122.5,154.5C 121.833,154.833 121.167,155.167 120.5,155.5C 124.5,148.167 130.167,142.5 137.5,138.5 Z"/></g>
<g><path style="opacity:0.608" fill="#accbfc" d="M 155.5,142.5 C 157.074,144.102 157.741,146.102 157.5,148.5C 155.926,146.898 155.259,144.898 155.5,142.5 Z"/></g>
<g><path style="opacity:0.49" fill="#a19ec1" d="M 106.5,146.5 C 107.906,146.973 108.573,147.973 108.5,149.5C 107.094,149.027 106.427,148.027 106.5,146.5 Z"/></g>
<g><path style="opacity:1" fill="#4490f9" d="M 154.5,152.5 C 154.335,154.827 153.669,156.993 152.5,159C 153.097,160.062 153.43,161.228 153.5,162.5C 152.645,167.484 151.978,172.484 151.5,177.5C 149.94,177.519 148.44,177.852 147,178.5C 145.669,179.996 144.169,181.329 142.5,182.5C 140.89,179.316 139.89,175.983 139.5,172.5C 141.124,172.36 142.29,173.027 143,174.5C 143.595,173.101 143.428,171.768 142.5,170.5C 143.611,169.389 144.278,168.055 144.5,166.5C 144.253,165.287 143.586,164.62 142.5,164.5C 143.087,163.233 143.087,162.233 142.5,161.5C 140.527,164.64 138.36,167.64 136,170.5C 135.074,168.308 133.907,166.308 132.5,164.5C 133.301,162.492 134.634,161.992 136.5,163C 136.167,162 135.833,161 135.5,160C 136.744,159.544 137.577,160.044 138,161.5C 140.109,160.965 140.609,159.965 139.5,158.5C 141.17,157.114 142.504,155.281 143.5,153C 145.025,151.991 146.692,151.491 148.5,151.5C 148.5,150.5 148.5,149.5 148.5,148.5C 149.675,148.281 150.675,148.614 151.5,149.5C 150.145,150.675 150.312,151.675 152,152.5C 153.071,149.887 153.905,149.887 154.5,152.5 Z"/></g>
<g><path style="opacity:0.451" fill="#97999f" d="M 88.5,154.5 C 88.573,156.027 87.9063,157.027 86.5,157.5C 86.427,155.973 87.0937,154.973 88.5,154.5 Z"/></g>
<g><path style="opacity:1" fill="#aac4f6" d="M 90.5,143.5 C 93.0094,144.921 95.3428,146.588 97.5,148.5C 99.8333,149.833 102.167,151.167 104.5,152.5C 103.351,152.791 102.684,153.624 102.5,155C 104.333,158.167 106.167,161.333 108,164.5C 108.556,166.885 108.39,169.218 107.5,171.5C 102.111,165.083 96.9448,158.416 92,151.5C 90.9609,152.71 89.7942,153.71 88.5,154.5C 88.9195,152.906 89.5862,151.406 90.5,150C 89.2799,147.83 89.2799,145.663 90.5,143.5 Z"/></g>
<g><path style="opacity:0.027" fill="#c2c7cf" d="M 86.5,157.5 C 85.8776,159.122 84.8776,160.455 83.5,161.5C 83.4677,159.381 84.4677,158.048 86.5,157.5 Z"/></g>
<g><path style="opacity:0.204" fill="#d8e2f6" d="M 158.5,152.5 C 159.652,157.985 159.818,163.651 159,169.5C 158.741,173.89 157.574,177.89 155.5,181.5C 156.807,176.934 157.474,172.267 157.5,167.5C 158.487,162.695 158.821,157.695 158.5,152.5 Z"/></g>
<g><path style="opacity:1" fill="#82b3f8" d="M 122.5,154.5 C 126.84,156.84 130.173,160.173 132.5,164.5C 133.907,166.308 135.074,168.308 136,170.5C 138.36,167.64 140.527,164.64 142.5,161.5C 143.087,162.233 143.087,163.233 142.5,164.5C 141.962,166.117 141.629,167.784 141.5,169.5C 140.448,169.351 139.448,169.517 138.5,170C 136.97,172.352 135.303,174.519 133.5,176.5C 130.686,170.343 126.686,165.009 121.5,160.5C 119.896,159.713 119.229,158.38 119.5,156.5C 119.5,155.833 119.833,155.5 120.5,155.5C 121.167,155.167 121.833,154.833 122.5,154.5 Z"/></g>
<g><path style="opacity:1" fill="#101324" d="M 107.5,171.5 C 109.115,174.45 111.115,177.116 113.5,179.5C 114.087,180.767 114.087,181.767 113.5,182.5C 110.844,182.04 108.51,181.04 106.5,179.5C 103.5,179.5 100.5,179.5 97.5,179.5C 96.2794,178.972 95.1127,178.305 94,177.5C 93.2828,178.044 92.7828,178.711 92.5,179.5C 84.6484,179.825 76.9818,179.492 69.5,178.5C 71.2624,177.738 72.2624,176.404 72.5,174.5C 74.5869,173.415 75.9202,171.749 76.5,169.5C 78.8903,168.109 80.5569,166.109 81.5,163.5C 82.5,163.167 83.1667,162.5 83.5,161.5C 84.8776,160.455 85.8776,159.122 86.5,157.5C 87.9063,157.027 88.573,156.027 88.5,154.5C 89.7942,153.71 90.9609,152.71 92,151.5C 96.9448,158.416 102.111,165.083 107.5,171.5 Z"/></g>
<g><path style="opacity:0.11" fill="#dae1e8" d="M 83.5,161.5 C 83.1667,162.5 82.5,163.167 81.5,163.5C 81.5,162.167 82.1667,161.5 83.5,161.5 Z"/></g>
<g><path style="opacity:1" fill="#cad4f6" d="M 107.5,151.5 C 107.389,152.117 107.056,152.617 106.5,153C 110.314,155.98 113.981,159.146 117.5,162.5C 118.308,162.192 118.975,161.692 119.5,161C 118.199,159.384 118.199,157.884 119.5,156.5C 119.229,158.38 119.896,159.713 121.5,160.5C 122.5,162.5 123.5,164.5 124.5,166.5C 122.455,171.215 121.955,176.215 123,181.5C 126.357,182.742 126.19,183.576 122.5,184C 123.756,184.417 124.423,185.25 124.5,186.5C 121.812,186.834 119.479,186.168 117.5,184.5C 116.396,182.611 115.063,180.945 113.5,179.5C 111.115,177.116 109.115,174.45 107.5,171.5C 108.39,169.218 108.556,166.885 108,164.5C 106.167,161.333 104.333,158.167 102.5,155C 102.684,153.624 103.351,152.791 104.5,152.5C 105.391,151.89 106.391,151.557 107.5,151.5 Z"/></g>
<g><path style="opacity:1" fill="#3b4d7c" d="M 121.5,160.5 C 126.686,165.009 130.686,170.343 133.5,176.5C 130.5,173.167 127.5,169.833 124.5,166.5C 123.5,164.5 122.5,162.5 121.5,160.5 Z"/></g>
<g><path style="opacity:0.149" fill="#d3d8e1" d="M 81.5,163.5 C 80.5569,166.109 78.8903,168.109 76.5,169.5C 77.4735,166.865 79.1402,164.865 81.5,163.5 Z"/></g>
<g><path style="opacity:0.596" fill="#b1b7c1" d="M 76.5,169.5 C 75.9202,171.749 74.5869,173.415 72.5,174.5C 73.0798,172.251 74.4131,170.585 76.5,169.5 Z"/></g>
<g><path style="opacity:0.839" fill="#878f9c" d="M 19.5,172.5 C 18.8333,172.5 18.1667,172.5 17.5,172.5C 16.2223,172.782 15.2223,173.449 14.5,174.5C 13.4908,173.061 13.8241,171.728 15.5,170.5C 17.0255,170.994 18.3588,171.661 19.5,172.5 Z"/></g>
<g><path style="opacity:1" fill="#4492f9" d="M 17.5,172.5 C 18.1667,172.5 18.8333,172.5 19.5,172.5C 20.4792,184.753 20.8126,197.087 20.5,209.5C 19.5,209.5 18.5,209.5 17.5,209.5C 17.5,197.167 17.5,184.833 17.5,172.5 Z"/></g>
<g><path style="opacity:1" fill="#abc3f6" d="M 124.5,166.5 C 127.5,169.833 130.5,173.167 133.5,176.5C 132.158,179.166 130.325,181.499 128,183.5C 127.517,184.448 127.351,185.448 127.5,186.5C 126.5,186.5 125.5,186.5 124.5,186.5C 124.423,185.25 123.756,184.417 122.5,184C 126.19,183.576 126.357,182.742 123,181.5C 121.955,176.215 122.455,171.215 124.5,166.5 Z"/></g>
<g><path style="opacity:0.009" fill="#d2d3d4" d="M 72.5,174.5 C 72.2624,176.404 71.2624,177.738 69.5,178.5C 68.8333,179.167 68.1667,179.833 67.5,180.5C 67.0825,179.778 66.4158,179.278 65.5,179C 68.1449,177.956 70.4783,176.456 72.5,174.5 Z"/></g>
<g><path style="opacity:1" fill="#e3e3e5" d="M 97.5,179.5 C 95.8333,180.833 94.1667,180.833 92.5,179.5C 92.7828,178.711 93.2828,178.044 94,177.5C 95.1127,178.305 96.2794,178.972 97.5,179.5 Z"/></g>
<g><path style="opacity:1" fill="#4788ed" d="M 157.5,167.5 C 157.474,172.267 156.807,176.934 155.5,181.5C 155.267,184.542 154.267,187.208 152.5,189.5C 151.5,189.5 150.5,189.5 149.5,189.5C 148.36,192.025 147.693,194.692 147.5,197.5C 147.5,198.167 147.167,198.5 146.5,198.5C 145.094,198.973 144.427,199.973 144.5,201.5C 144.5,202.167 144.167,202.5 143.5,202.5C 140.569,200.909 137.902,198.909 135.5,196.5C 134.864,194.205 133.531,192.539 131.5,191.5C 130.92,189.251 129.587,187.585 127.5,186.5C 127.351,185.448 127.517,184.448 128,183.5C 130.325,181.499 132.158,179.166 133.5,176.5C 135.303,174.519 136.97,172.352 138.5,170C 139.448,169.517 140.448,169.351 141.5,169.5C 141.629,167.784 141.962,166.117 142.5,164.5C 143.586,164.62 144.253,165.287 144.5,166.5C 144.278,168.055 143.611,169.389 142.5,170.5C 143.428,171.768 143.595,173.101 143,174.5C 142.29,173.027 141.124,172.36 139.5,172.5C 139.89,175.983 140.89,179.316 142.5,182.5C 144.169,181.329 145.669,179.996 147,178.5C 148.44,177.852 149.94,177.519 151.5,177.5C 151.978,172.484 152.645,167.484 153.5,162.5C 153.43,161.228 153.097,160.062 152.5,159C 153.669,156.993 154.335,154.827 154.5,152.5C 155.15,152.196 155.817,151.863 156.5,151.5C 157.495,156.792 157.828,162.125 157.5,167.5 Z"/></g>
<g><path style="opacity:1" fill="#63636f" d="M 69.5,178.5 C 76.9818,179.492 84.6484,179.825 92.5,179.5C 94.1667,180.833 95.8333,180.833 97.5,179.5C 100.5,179.5 103.5,179.5 106.5,179.5C 101.944,181.442 96.9443,182.108 91.5,181.5C 73.8333,181.5 56.1667,181.5 38.5,181.5C 38.5,181.167 38.5,180.833 38.5,180.5C 48.1667,180.5 57.8333,180.5 67.5,180.5C 68.1667,179.833 68.8333,179.167 69.5,178.5 Z"/></g>
<g><path style="opacity:1" fill="#0f1126" d="M 38.5,181.5 C 56.1667,181.5 73.8333,181.5 91.5,181.5C 89.6115,182.322 87.6115,183.155 85.5,184C 84.7107,187.097 83.544,187.264 82,184.5C 82.8333,188.667 81.3333,189.833 77.5,188C 78.3081,187.692 78.9747,187.192 79.5,186.5C 78.7542,185.264 78.4208,183.93 78.5,182.5C 76.549,182.227 75.049,182.893 74,184.5C 72.0624,183.14 70.3957,183.473 69,185.5C 68.6667,184.833 68.3333,184.167 68,183.5C 66.3963,184.649 64.7297,184.649 63,183.5C 59.9188,185.822 56.4188,187.322 52.5,188C 55.4499,191.07 58.6166,191.237 62,188.5C 63.6836,188.683 63.8502,189.35 62.5,190.5C 62.0618,190.435 61.7284,190.601 61.5,191C 63.9574,192.154 63.9574,193.488 61.5,195C 63.5112,196.635 65.5112,197.468 67.5,197.5C 65.3691,198.169 63.3691,198.835 61.5,199.5C 56.1667,199.5 50.8333,199.5 45.5,199.5C 45.5,197.5 45.5,195.5 45.5,193.5C 45.477,191.073 44.977,188.74 44,186.5C 43.1955,189.696 43.3622,192.696 44.5,195.5C 44.5,199.833 44.5,204.167 44.5,208.5C 42.8333,208.5 41.1667,208.5 39.5,208.5C 39.5516,199.482 39.2183,190.482 38.5,181.5 Z"/></g>
<g><path style="opacity:1" fill="#1c1d30" d="M 117.5,184.5 C 119.479,186.168 121.812,186.834 124.5,186.5C 125.5,186.5 126.5,186.5 127.5,186.5C 128.08,188.749 129.413,190.415 131.5,191.5C 132.124,193.754 133.457,195.421 135.5,196.5C 136.031,198.544 137.198,200.211 139,201.5C 139.49,202.793 139.657,204.127 139.5,205.5C 138.22,206.931 136.553,207.598 134.5,207.5C 118.325,207.17 102.325,207.504 86.5,208.5C 75.8333,208.5 65.1667,208.5 54.5,208.5C 50.9878,209.055 47.9878,208.388 45.5,206.5C 71.3753,206.34 98.3753,206.173 126.5,206C 126,205.5 125.5,205 125,204.5C 119.966,204.698 114.633,205.031 109,205.5C 106.821,204.884 104.988,203.717 103.5,202C 84.1695,201.5 64.8362,201.333 45.5,201.5C 45.5,200.833 45.5,200.167 45.5,199.5C 50.8333,199.5 56.1667,199.5 61.5,199.5C 69.1739,199.666 76.8406,199.5 84.5,199C 85.354,197.978 86.354,197.145 87.5,196.5C 90.4694,197.738 93.636,198.405 97,198.5C 99.8333,198.333 102.667,198.167 105.5,198C 106.624,197.751 107.624,197.251 108.5,196.5C 107.359,195.575 107.359,194.741 108.5,194C 106.888,193.28 105.388,193.446 104,194.5C 101.955,193.074 99.7879,192.074 97.5,191.5C 105.528,191.831 113.528,191.498 121.5,190.5C 118.553,189.679 115.553,189.179 112.5,189C 114.362,187.634 116.028,186.134 117.5,184.5 Z"/></g>
<g><path style="opacity:1" fill="#374d71" d="M 17.5,172.5 C 17.5,184.833 17.5,197.167 17.5,209.5C 16.5,209.5 15.5,209.5 14.5,209.5C 14.299,197.669 14.299,186.002 14.5,174.5C 15.2223,173.449 16.2223,172.782 17.5,172.5 Z"/></g>
<g><path style="opacity:0.957" fill="#838797" d="M 38.5,181.5 C 39.2183,190.482 39.5516,199.482 39.5,208.5C 38.8333,208.5 38.1667,208.5 37.5,208.5C 37.5,204.5 37.5,200.5 37.5,196.5C 37.1795,191.305 37.5128,186.305 38.5,181.5 Z"/></g>
<g><path style="opacity:1" fill="#909bb7" d="M 127.5,186.5 C 129.587,187.585 130.92,189.251 131.5,191.5C 129.413,190.415 128.08,188.749 127.5,186.5 Z"/></g>
<g><path style="opacity:1" fill="#16192f" d="M 106.5,179.5 C 108.51,181.04 110.844,182.04 113.5,182.5C 114.087,181.767 114.087,180.767 113.5,179.5C 115.063,180.945 116.396,182.611 117.5,184.5C 116.028,186.134 114.362,187.634 112.5,189C 115.553,189.179 118.553,189.679 121.5,190.5C 113.528,191.498 105.528,191.831 97.5,191.5C 85.8463,190.806 74.1797,190.473 62.5,190.5C 63.8502,189.35 63.6836,188.683 62,188.5C 58.6166,191.237 55.4499,191.07 52.5,188C 56.4188,187.322 59.9188,185.822 63,183.5C 64.7297,184.649 66.3963,184.649 68,183.5C 68.3333,184.167 68.6667,184.833 69,185.5C 70.3957,183.473 72.0624,183.14 74,184.5C 75.049,182.893 76.549,182.227 78.5,182.5C 78.4208,183.93 78.7542,185.264 79.5,186.5C 78.9747,187.192 78.3081,187.692 77.5,188C 81.3333,189.833 82.8333,188.667 82,184.5C 83.544,187.264 84.7107,187.097 85.5,184C 87.6115,183.155 89.6115,182.322 91.5,181.5C 96.9443,182.108 101.944,181.442 106.5,179.5 Z"/></g>
<g><path style="opacity:1" fill="#0e0f23" d="M 62.5,190.5 C 74.1797,190.473 85.8463,190.806 97.5,191.5C 99.7879,192.074 101.955,193.074 104,194.5C 105.388,193.446 106.888,193.28 108.5,194C 107.359,194.741 107.359,195.575 108.5,196.5C 107.624,197.251 106.624,197.751 105.5,198C 102.667,198.167 99.8333,198.333 97,198.5C 93.636,198.405 90.4694,197.738 87.5,196.5C 86.354,197.145 85.354,197.978 84.5,199C 76.8406,199.5 69.1739,199.666 61.5,199.5C 63.3691,198.835 65.3691,198.169 67.5,197.5C 65.5112,197.468 63.5112,196.635 61.5,195C 63.9574,193.488 63.9574,192.154 61.5,191C 61.7284,190.601 62.0618,190.435 62.5,190.5 Z"/></g>
<g><path style="opacity:1" fill="#434555" d="M 45.5,193.5 C 44.6618,193.842 44.3284,194.508 44.5,195.5C 43.3622,192.696 43.1955,189.696 44,186.5C 44.977,188.74 45.477,191.073 45.5,193.5 Z"/></g>
<g><path style="opacity:1" fill="#8fa4cd" d="M 131.5,191.5 C 133.531,192.539 134.864,194.205 135.5,196.5C 133.457,195.421 132.124,193.754 131.5,191.5 Z"/></g>
<g><path style="opacity:1" fill="#8babf2" d="M 152.5,189.5 C 151.617,192.704 149.95,195.371 147.5,197.5C 147.693,194.692 148.36,192.025 149.5,189.5C 150.5,189.5 151.5,189.5 152.5,189.5 Z"/></g>
<g><path style="opacity:1" fill="#848faf" d="M 135.5,196.5 C 137.902,198.909 140.569,200.909 143.5,202.5C 142.205,203.488 140.872,204.488 139.5,205.5C 139.657,204.127 139.49,202.793 139,201.5C 137.198,200.211 136.031,198.544 135.5,196.5 Z"/></g>
<g><path style="opacity:1" fill="#84b4f4" d="M 19.5,172.5 C 24.9987,175.484 27.9987,180.15 28.5,186.5C 28.6663,193.841 28.4997,201.174 28,208.5C 25.6194,209.435 23.1194,209.768 20.5,209.5C 20.8126,197.087 20.4792,184.753 19.5,172.5 Z"/></g>
<g><path style="opacity:0.976" fill="#cad2e8" d="M 38.5,180.5 C 38.5,180.833 38.5,181.167 38.5,181.5C 37.5128,186.305 37.1795,191.305 37.5,196.5C 36.5266,196.987 35.5266,197.487 34.5,198C 35.3366,199.011 35.67,200.178 35.5,201.5C 33.8333,201.5 32.1667,201.5 30.5,201.5C 30.5,203.833 30.5,206.167 30.5,208.5C 32.8333,208.5 35.1667,208.5 37.5,208.5C 38.1667,208.5 38.8333,208.5 39.5,208.5C 39.5,208.833 39.5,209.167 39.5,209.5C 30.9982,210.334 22.6649,210.334 14.5,209.5C 15.5,209.5 16.5,209.5 17.5,209.5C 18.5,209.5 19.5,209.5 20.5,209.5C 23.1194,209.768 25.6194,209.435 28,208.5C 28.4997,201.174 28.6663,193.841 28.5,186.5C 29.1663,190.021 29.8329,193.687 30.5,197.5C 32.1151,196.846 33.7818,196.346 35.5,196C 36.1617,191.569 36.3284,187.069 36,182.5C 36.4169,181.244 37.2502,180.577 38.5,180.5 Z"/></g>
<g><path style="opacity:0.004" fill="#d9e3f9" d="M 146.5,198.5 C 146.573,200.027 145.906,201.027 144.5,201.5C 144.427,199.973 145.094,198.973 146.5,198.5 Z"/></g>
<g><path style="opacity:1" fill="#0e0f22" d="M 45.5,201.5 C 64.8362,201.333 84.1695,201.5 103.5,202C 104.988,203.717 106.821,204.884 109,205.5C 114.633,205.031 119.966,204.698 125,204.5C 125.5,205 126,205.5 126.5,206C 98.3753,206.173 71.3753,206.34 45.5,206.5C 45.5,204.833 45.5,203.167 45.5,201.5 Z"/></g>
<g><path style="opacity:1" fill="#bed1fc" d="M 37.5,196.5 C 37.5,200.5 37.5,204.5 37.5,208.5C 35.1667,208.5 32.8333,208.5 30.5,208.5C 30.5,206.167 30.5,203.833 30.5,201.5C 32.1667,201.5 33.8333,201.5 35.5,201.5C 35.67,200.178 35.3366,199.011 34.5,198C 35.5266,197.487 36.5266,196.987 37.5,196.5 Z"/></g>
<g><path style="opacity:0.924" fill="#868995" d="M 45.5,193.5 C 45.5,195.5 45.5,197.5 45.5,199.5C 45.5,200.167 45.5,200.833 45.5,201.5C 45.5,203.167 45.5,204.833 45.5,206.5C 47.9878,208.388 50.9878,209.055 54.5,208.5C 54.5,208.833 54.5,209.167 54.5,209.5C 49.5,209.5 44.5,209.5 39.5,209.5C 39.5,209.167 39.5,208.833 39.5,208.5C 41.1667,208.5 42.8333,208.5 44.5,208.5C 44.5,204.167 44.5,199.833 44.5,195.5C 44.3284,194.508 44.6618,193.842 45.5,193.5 Z"/></g>
<g><path style="opacity:0.396" fill="#9ca1af" d="M 86.5,208.5 C 102.325,207.504 118.325,207.17 134.5,207.5C 125.991,208.252 117.324,208.918 108.5,209.5C 107.075,209.377 105.742,209.043 104.5,208.5C 98.5,208.5 92.5,208.5 86.5,208.5 Z"/></g>
<g><path style="opacity:0.029" fill="#dae0ea" d="M 54.5,209.5 C 54.5,209.167 54.5,208.833 54.5,208.5C 65.1667,208.5 75.8333,208.5 86.5,208.5C 92.5,208.5 98.5,208.5 104.5,208.5C 87.9537,209.87 71.2871,210.203 54.5,209.5 Z"/></g>
</svg>
