<?xml version="1.0" encoding="UTF-8"?>
<!DOCTYPE svg PUBLIC "-//W3C//DTD SVG 1.1//EN" "http://www.w3.org/Graphics/SVG/1.1/DTD/svg11.dtd">
<svg xmlns="http://www.w3.org/2000/svg" version="1.1" width="48px" height="48px" style="shape-rendering:geometricPrecision; text-rendering:geometricPrecision; image-rendering:optimizeQuality; fill-rule:evenodd; clip-rule:evenodd" xmlns:xlink="http://www.w3.org/1999/xlink">
<g><path style="opacity:0.864" fill="#050505" d="M 22.5,1.5 C 33.5435,1.10964 41.0435,6.10964 45,16.5C 45.5336,23.5122 44.2003,30.1788 41,36.5C 34.9651,45.0443 26.7984,47.8776 16.5,45C 4.63652,39.0908 0.469857,29.5908 4,16.5C 5.43943,13.3974 7.27276,10.5641 9.5,8C 13.76,5.203 18.0933,3.03633 22.5,1.5 Z"/></g>
<g><path style="opacity:1" fill="#fafafa" d="M 24.5,3.5 C 35.8333,4.83333 42.1667,11.1667 43.5,22.5C 37.1667,22.5 30.8333,22.5 24.5,22.5C 24.5,16.1667 24.5,9.83333 24.5,3.5 Z"/></g>
<g><path style="opacity:1" fill="#fafafa" d="M 18.5,5.5 C 19.8333,5.5 21.1667,5.5 22.5,5.5C 22.5,11.8333 22.5,18.1667 22.5,24.5C 28.8333,24.5 35.1667,24.5 41.5,24.5C 39.1774,37.336 31.5107,42.836 18.5,41C 5.47854,34.7895 2.31187,25.2895 9,12.5C 11.7901,9.53498 14.9567,7.20165 18.5,5.5 Z"/></g>
</svg>
